G04 #@! TF.GenerationSoftware,KiCad,Pcbnew,(5.1.5-0-10_14)*
G04 #@! TF.CreationDate,2021-09-17T07:52:49+02:00*
G04 #@! TF.ProjectId,Fluke 9010a Probe,466c756b-6520-4393-9031-30612050726f,1.2*
G04 #@! TF.SameCoordinates,Original*
G04 #@! TF.FileFunction,Soldermask,Top*
G04 #@! TF.FilePolarity,Negative*
%FSLAX46Y46*%
G04 Gerber Fmt 4.6, Leading zero omitted, Abs format (unit mm)*
G04 Created by KiCad (PCBNEW (5.1.5-0-10_14)) date 2021-09-17 07:52:49*
%MOMM*%
%LPD*%
G04 APERTURE LIST*
%ADD10C,0.100000*%
G04 APERTURE END LIST*
D10*
G36*
X139636000Y-129171000D02*
G01*
X137834000Y-129171000D01*
X137834000Y-127369000D01*
X139636000Y-127369000D01*
X139636000Y-129171000D01*
G37*
G36*
X136308512Y-127373927D02*
G01*
X136457812Y-127403624D01*
X136621784Y-127471544D01*
X136769354Y-127570147D01*
X136894853Y-127695646D01*
X136993456Y-127843216D01*
X137061376Y-128007188D01*
X137096000Y-128181259D01*
X137096000Y-128358741D01*
X137061376Y-128532812D01*
X136993456Y-128696784D01*
X136894853Y-128844354D01*
X136769354Y-128969853D01*
X136621784Y-129068456D01*
X136457812Y-129136376D01*
X136308512Y-129166073D01*
X136283742Y-129171000D01*
X136106258Y-129171000D01*
X136081488Y-129166073D01*
X135932188Y-129136376D01*
X135768216Y-129068456D01*
X135620646Y-128969853D01*
X135495147Y-128844354D01*
X135396544Y-128696784D01*
X135328624Y-128532812D01*
X135294000Y-128358741D01*
X135294000Y-128181259D01*
X135328624Y-128007188D01*
X135396544Y-127843216D01*
X135495147Y-127695646D01*
X135620646Y-127570147D01*
X135768216Y-127471544D01*
X135932188Y-127403624D01*
X136081488Y-127373927D01*
X136106258Y-127369000D01*
X136283742Y-127369000D01*
X136308512Y-127373927D01*
G37*
G36*
X131228512Y-127373927D02*
G01*
X131377812Y-127403624D01*
X131541784Y-127471544D01*
X131689354Y-127570147D01*
X131814853Y-127695646D01*
X131913456Y-127843216D01*
X131981376Y-128007188D01*
X132016000Y-128181259D01*
X132016000Y-128358741D01*
X131981376Y-128532812D01*
X131913456Y-128696784D01*
X131814853Y-128844354D01*
X131689354Y-128969853D01*
X131541784Y-129068456D01*
X131377812Y-129136376D01*
X131228512Y-129166073D01*
X131203742Y-129171000D01*
X131026258Y-129171000D01*
X131001488Y-129166073D01*
X130852188Y-129136376D01*
X130688216Y-129068456D01*
X130540646Y-128969853D01*
X130415147Y-128844354D01*
X130316544Y-128696784D01*
X130248624Y-128532812D01*
X130214000Y-128358741D01*
X130214000Y-128181259D01*
X130248624Y-128007188D01*
X130316544Y-127843216D01*
X130415147Y-127695646D01*
X130540646Y-127570147D01*
X130688216Y-127471544D01*
X130852188Y-127403624D01*
X131001488Y-127373927D01*
X131026258Y-127369000D01*
X131203742Y-127369000D01*
X131228512Y-127373927D01*
G37*
G36*
X128688512Y-127373927D02*
G01*
X128837812Y-127403624D01*
X129001784Y-127471544D01*
X129149354Y-127570147D01*
X129274853Y-127695646D01*
X129373456Y-127843216D01*
X129441376Y-128007188D01*
X129476000Y-128181259D01*
X129476000Y-128358741D01*
X129441376Y-128532812D01*
X129373456Y-128696784D01*
X129274853Y-128844354D01*
X129149354Y-128969853D01*
X129001784Y-129068456D01*
X128837812Y-129136376D01*
X128688512Y-129166073D01*
X128663742Y-129171000D01*
X128486258Y-129171000D01*
X128461488Y-129166073D01*
X128312188Y-129136376D01*
X128148216Y-129068456D01*
X128000646Y-128969853D01*
X127875147Y-128844354D01*
X127776544Y-128696784D01*
X127708624Y-128532812D01*
X127674000Y-128358741D01*
X127674000Y-128181259D01*
X127708624Y-128007188D01*
X127776544Y-127843216D01*
X127875147Y-127695646D01*
X128000646Y-127570147D01*
X128148216Y-127471544D01*
X128312188Y-127403624D01*
X128461488Y-127373927D01*
X128486258Y-127369000D01*
X128663742Y-127369000D01*
X128688512Y-127373927D01*
G37*
G36*
X115153674Y-127523465D02*
G01*
X115191367Y-127534899D01*
X115226103Y-127553466D01*
X115256548Y-127578452D01*
X115281534Y-127608897D01*
X115300101Y-127643633D01*
X115311535Y-127681326D01*
X115316000Y-127726661D01*
X115316000Y-128813339D01*
X115311535Y-128858674D01*
X115300101Y-128896367D01*
X115281534Y-128931103D01*
X115256548Y-128961548D01*
X115226103Y-128986534D01*
X115191367Y-129005101D01*
X115153674Y-129016535D01*
X115108339Y-129021000D01*
X114271661Y-129021000D01*
X114226326Y-129016535D01*
X114188633Y-129005101D01*
X114153897Y-128986534D01*
X114123452Y-128961548D01*
X114098466Y-128931103D01*
X114079899Y-128896367D01*
X114068465Y-128858674D01*
X114064000Y-128813339D01*
X114064000Y-127726661D01*
X114068465Y-127681326D01*
X114079899Y-127643633D01*
X114098466Y-127608897D01*
X114123452Y-127578452D01*
X114153897Y-127553466D01*
X114188633Y-127534899D01*
X114226326Y-127523465D01*
X114271661Y-127519000D01*
X115108339Y-127519000D01*
X115153674Y-127523465D01*
G37*
G36*
X113103674Y-127523465D02*
G01*
X113141367Y-127534899D01*
X113176103Y-127553466D01*
X113206548Y-127578452D01*
X113231534Y-127608897D01*
X113250101Y-127643633D01*
X113261535Y-127681326D01*
X113266000Y-127726661D01*
X113266000Y-128813339D01*
X113261535Y-128858674D01*
X113250101Y-128896367D01*
X113231534Y-128931103D01*
X113206548Y-128961548D01*
X113176103Y-128986534D01*
X113141367Y-129005101D01*
X113103674Y-129016535D01*
X113058339Y-129021000D01*
X112221661Y-129021000D01*
X112176326Y-129016535D01*
X112138633Y-129005101D01*
X112103897Y-128986534D01*
X112073452Y-128961548D01*
X112048466Y-128931103D01*
X112029899Y-128896367D01*
X112018465Y-128858674D01*
X112014000Y-128813339D01*
X112014000Y-127726661D01*
X112018465Y-127681326D01*
X112029899Y-127643633D01*
X112048466Y-127608897D01*
X112073452Y-127578452D01*
X112103897Y-127553466D01*
X112138633Y-127534899D01*
X112176326Y-127523465D01*
X112221661Y-127519000D01*
X113058339Y-127519000D01*
X113103674Y-127523465D01*
G37*
G36*
X122882674Y-127142465D02*
G01*
X122920367Y-127153899D01*
X122955103Y-127172466D01*
X122985548Y-127197452D01*
X123010534Y-127227897D01*
X123029101Y-127262633D01*
X123040535Y-127300326D01*
X123045000Y-127345661D01*
X123045000Y-128432339D01*
X123040535Y-128477674D01*
X123029101Y-128515367D01*
X123010534Y-128550103D01*
X122985548Y-128580548D01*
X122955103Y-128605534D01*
X122920367Y-128624101D01*
X122882674Y-128635535D01*
X122837339Y-128640000D01*
X122000661Y-128640000D01*
X121955326Y-128635535D01*
X121917633Y-128624101D01*
X121882897Y-128605534D01*
X121852452Y-128580548D01*
X121827466Y-128550103D01*
X121808899Y-128515367D01*
X121797465Y-128477674D01*
X121793000Y-128432339D01*
X121793000Y-127345661D01*
X121797465Y-127300326D01*
X121808899Y-127262633D01*
X121827466Y-127227897D01*
X121852452Y-127197452D01*
X121882897Y-127172466D01*
X121917633Y-127153899D01*
X121955326Y-127142465D01*
X122000661Y-127138000D01*
X122837339Y-127138000D01*
X122882674Y-127142465D01*
G37*
G36*
X124932674Y-127142465D02*
G01*
X124970367Y-127153899D01*
X125005103Y-127172466D01*
X125035548Y-127197452D01*
X125060534Y-127227897D01*
X125079101Y-127262633D01*
X125090535Y-127300326D01*
X125095000Y-127345661D01*
X125095000Y-128432339D01*
X125090535Y-128477674D01*
X125079101Y-128515367D01*
X125060534Y-128550103D01*
X125035548Y-128580548D01*
X125005103Y-128605534D01*
X124970367Y-128624101D01*
X124932674Y-128635535D01*
X124887339Y-128640000D01*
X124050661Y-128640000D01*
X124005326Y-128635535D01*
X123967633Y-128624101D01*
X123932897Y-128605534D01*
X123902452Y-128580548D01*
X123877466Y-128550103D01*
X123858899Y-128515367D01*
X123847465Y-128477674D01*
X123843000Y-128432339D01*
X123843000Y-127345661D01*
X123847465Y-127300326D01*
X123858899Y-127262633D01*
X123877466Y-127227897D01*
X123902452Y-127197452D01*
X123932897Y-127172466D01*
X123967633Y-127153899D01*
X124005326Y-127142465D01*
X124050661Y-127138000D01*
X124887339Y-127138000D01*
X124932674Y-127142465D01*
G37*
G36*
X104075000Y-127951000D02*
G01*
X102173000Y-127951000D01*
X102173000Y-126049000D01*
X104075000Y-126049000D01*
X104075000Y-127951000D01*
G37*
G36*
X108647000Y-127951000D02*
G01*
X106745000Y-127951000D01*
X106745000Y-126049000D01*
X108647000Y-126049000D01*
X108647000Y-127951000D01*
G37*
G36*
X134008097Y-124684069D02*
G01*
X134111032Y-124694207D01*
X134309146Y-124754305D01*
X134309149Y-124754306D01*
X134405975Y-124806061D01*
X134491729Y-124851897D01*
X134651765Y-124983235D01*
X134783103Y-125143271D01*
X134789718Y-125155647D01*
X134880694Y-125325851D01*
X134880695Y-125325854D01*
X134940793Y-125523968D01*
X134961085Y-125730000D01*
X134940793Y-125936032D01*
X134906524Y-126049000D01*
X134880694Y-126134149D01*
X134868596Y-126156782D01*
X134783103Y-126316729D01*
X134651765Y-126476765D01*
X134491729Y-126608103D01*
X134448891Y-126631000D01*
X134309149Y-126705694D01*
X134309146Y-126705695D01*
X134111032Y-126765793D01*
X134008097Y-126775931D01*
X133956631Y-126781000D01*
X133353369Y-126781000D01*
X133301903Y-126775931D01*
X133198968Y-126765793D01*
X133000854Y-126705695D01*
X133000851Y-126705694D01*
X132861109Y-126631000D01*
X132818271Y-126608103D01*
X132658235Y-126476765D01*
X132526897Y-126316729D01*
X132441404Y-126156782D01*
X132429306Y-126134149D01*
X132403476Y-126049000D01*
X132369207Y-125936032D01*
X132348915Y-125730000D01*
X132369207Y-125523968D01*
X132429305Y-125325854D01*
X132429306Y-125325851D01*
X132520282Y-125155647D01*
X132526897Y-125143271D01*
X132658235Y-124983235D01*
X132818271Y-124851897D01*
X132904025Y-124806061D01*
X133000851Y-124754306D01*
X133000854Y-124754305D01*
X133198968Y-124694207D01*
X133301903Y-124684069D01*
X133353369Y-124679000D01*
X133956631Y-124679000D01*
X134008097Y-124684069D01*
G37*
G36*
X92468000Y-126631000D02*
G01*
X90666000Y-126631000D01*
X90666000Y-124829000D01*
X92468000Y-124829000D01*
X92468000Y-126631000D01*
G37*
G36*
X138848512Y-124833927D02*
G01*
X138997812Y-124863624D01*
X139161784Y-124931544D01*
X139309354Y-125030147D01*
X139434853Y-125155646D01*
X139533456Y-125303216D01*
X139601376Y-125467188D01*
X139636000Y-125641259D01*
X139636000Y-125818741D01*
X139601376Y-125992812D01*
X139533456Y-126156784D01*
X139434853Y-126304354D01*
X139309354Y-126429853D01*
X139161784Y-126528456D01*
X138997812Y-126596376D01*
X138848512Y-126626073D01*
X138823742Y-126631000D01*
X138646258Y-126631000D01*
X138621488Y-126626073D01*
X138472188Y-126596376D01*
X138308216Y-126528456D01*
X138160646Y-126429853D01*
X138035147Y-126304354D01*
X137936544Y-126156784D01*
X137868624Y-125992812D01*
X137834000Y-125818741D01*
X137834000Y-125641259D01*
X137868624Y-125467188D01*
X137936544Y-125303216D01*
X138035147Y-125155646D01*
X138160646Y-125030147D01*
X138308216Y-124931544D01*
X138472188Y-124863624D01*
X138621488Y-124833927D01*
X138646258Y-124829000D01*
X138823742Y-124829000D01*
X138848512Y-124833927D01*
G37*
G36*
X103401395Y-123545546D02*
G01*
X103574466Y-123617234D01*
X103574467Y-123617235D01*
X103730227Y-123721310D01*
X103862690Y-123853773D01*
X103907130Y-123920282D01*
X103966766Y-124009534D01*
X104038454Y-124182605D01*
X104075000Y-124366333D01*
X104075000Y-124553667D01*
X104038454Y-124737395D01*
X103966766Y-124910466D01*
X103966765Y-124910467D01*
X103862690Y-125066227D01*
X103730227Y-125198690D01*
X103651818Y-125251081D01*
X103574466Y-125302766D01*
X103401395Y-125374454D01*
X103217667Y-125411000D01*
X103030333Y-125411000D01*
X102846605Y-125374454D01*
X102673534Y-125302766D01*
X102596182Y-125251081D01*
X102517773Y-125198690D01*
X102385310Y-125066227D01*
X102281235Y-124910467D01*
X102281234Y-124910466D01*
X102209546Y-124737395D01*
X102173000Y-124553667D01*
X102173000Y-124366333D01*
X102209546Y-124182605D01*
X102281234Y-124009534D01*
X102340870Y-123920282D01*
X102385310Y-123853773D01*
X102517773Y-123721310D01*
X102673533Y-123617235D01*
X102673534Y-123617234D01*
X102846605Y-123545546D01*
X103030333Y-123509000D01*
X103217667Y-123509000D01*
X103401395Y-123545546D01*
G37*
G36*
X107973395Y-123545546D02*
G01*
X108146466Y-123617234D01*
X108146467Y-123617235D01*
X108302227Y-123721310D01*
X108434690Y-123853773D01*
X108479130Y-123920282D01*
X108538766Y-124009534D01*
X108610454Y-124182605D01*
X108647000Y-124366333D01*
X108647000Y-124553667D01*
X108610454Y-124737395D01*
X108538766Y-124910466D01*
X108538765Y-124910467D01*
X108434690Y-125066227D01*
X108302227Y-125198690D01*
X108223818Y-125251081D01*
X108146466Y-125302766D01*
X107973395Y-125374454D01*
X107789667Y-125411000D01*
X107602333Y-125411000D01*
X107418605Y-125374454D01*
X107245534Y-125302766D01*
X107168182Y-125251081D01*
X107089773Y-125198690D01*
X106957310Y-125066227D01*
X106853235Y-124910467D01*
X106853234Y-124910466D01*
X106781546Y-124737395D01*
X106745000Y-124553667D01*
X106745000Y-124366333D01*
X106781546Y-124182605D01*
X106853234Y-124009534D01*
X106912870Y-123920282D01*
X106957310Y-123853773D01*
X107089773Y-123721310D01*
X107245533Y-123617235D01*
X107245534Y-123617234D01*
X107418605Y-123545546D01*
X107602333Y-123509000D01*
X107789667Y-123509000D01*
X107973395Y-123545546D01*
G37*
G36*
X128688512Y-122293927D02*
G01*
X128837812Y-122323624D01*
X129001784Y-122391544D01*
X129149354Y-122490147D01*
X129274853Y-122615646D01*
X129373456Y-122763216D01*
X129441376Y-122927188D01*
X129476000Y-123101259D01*
X129476000Y-123278741D01*
X129441376Y-123452812D01*
X129373456Y-123616784D01*
X129274853Y-123764354D01*
X129149354Y-123889853D01*
X129001784Y-123988456D01*
X128837812Y-124056376D01*
X128688512Y-124086073D01*
X128663742Y-124091000D01*
X128486258Y-124091000D01*
X128461488Y-124086073D01*
X128312188Y-124056376D01*
X128148216Y-123988456D01*
X128000646Y-123889853D01*
X127875147Y-123764354D01*
X127776544Y-123616784D01*
X127708624Y-123452812D01*
X127674000Y-123278741D01*
X127674000Y-123101259D01*
X127708624Y-122927188D01*
X127776544Y-122763216D01*
X127875147Y-122615646D01*
X128000646Y-122490147D01*
X128148216Y-122391544D01*
X128312188Y-122323624D01*
X128461488Y-122293927D01*
X128486258Y-122289000D01*
X128663742Y-122289000D01*
X128688512Y-122293927D01*
G37*
G36*
X131228512Y-122293927D02*
G01*
X131377812Y-122323624D01*
X131541784Y-122391544D01*
X131689354Y-122490147D01*
X131814853Y-122615646D01*
X131913456Y-122763216D01*
X131981376Y-122927188D01*
X132016000Y-123101259D01*
X132016000Y-123278741D01*
X131981376Y-123452812D01*
X131913456Y-123616784D01*
X131814853Y-123764354D01*
X131689354Y-123889853D01*
X131541784Y-123988456D01*
X131377812Y-124056376D01*
X131228512Y-124086073D01*
X131203742Y-124091000D01*
X131026258Y-124091000D01*
X131001488Y-124086073D01*
X130852188Y-124056376D01*
X130688216Y-123988456D01*
X130540646Y-123889853D01*
X130415147Y-123764354D01*
X130316544Y-123616784D01*
X130248624Y-123452812D01*
X130214000Y-123278741D01*
X130214000Y-123101259D01*
X130248624Y-122927188D01*
X130316544Y-122763216D01*
X130415147Y-122615646D01*
X130540646Y-122490147D01*
X130688216Y-122391544D01*
X130852188Y-122323624D01*
X131001488Y-122293927D01*
X131026258Y-122289000D01*
X131203742Y-122289000D01*
X131228512Y-122293927D01*
G37*
G36*
X138848512Y-122293927D02*
G01*
X138997812Y-122323624D01*
X139161784Y-122391544D01*
X139309354Y-122490147D01*
X139434853Y-122615646D01*
X139533456Y-122763216D01*
X139601376Y-122927188D01*
X139636000Y-123101259D01*
X139636000Y-123278741D01*
X139601376Y-123452812D01*
X139533456Y-123616784D01*
X139434853Y-123764354D01*
X139309354Y-123889853D01*
X139161784Y-123988456D01*
X138997812Y-124056376D01*
X138848512Y-124086073D01*
X138823742Y-124091000D01*
X138646258Y-124091000D01*
X138621488Y-124086073D01*
X138472188Y-124056376D01*
X138308216Y-123988456D01*
X138160646Y-123889853D01*
X138035147Y-123764354D01*
X137936544Y-123616784D01*
X137868624Y-123452812D01*
X137834000Y-123278741D01*
X137834000Y-123101259D01*
X137868624Y-122927188D01*
X137936544Y-122763216D01*
X138035147Y-122615646D01*
X138160646Y-122490147D01*
X138308216Y-122391544D01*
X138472188Y-122323624D01*
X138621488Y-122293927D01*
X138646258Y-122289000D01*
X138823742Y-122289000D01*
X138848512Y-122293927D01*
G37*
G36*
X136308512Y-122293927D02*
G01*
X136457812Y-122323624D01*
X136621784Y-122391544D01*
X136769354Y-122490147D01*
X136894853Y-122615646D01*
X136993456Y-122763216D01*
X137061376Y-122927188D01*
X137096000Y-123101259D01*
X137096000Y-123278741D01*
X137061376Y-123452812D01*
X136993456Y-123616784D01*
X136894853Y-123764354D01*
X136769354Y-123889853D01*
X136621784Y-123988456D01*
X136457812Y-124056376D01*
X136308512Y-124086073D01*
X136283742Y-124091000D01*
X136106258Y-124091000D01*
X136081488Y-124086073D01*
X135932188Y-124056376D01*
X135768216Y-123988456D01*
X135620646Y-123889853D01*
X135495147Y-123764354D01*
X135396544Y-123616784D01*
X135328624Y-123452812D01*
X135294000Y-123278741D01*
X135294000Y-123101259D01*
X135328624Y-122927188D01*
X135396544Y-122763216D01*
X135495147Y-122615646D01*
X135620646Y-122490147D01*
X135768216Y-122391544D01*
X135932188Y-122323624D01*
X136081488Y-122293927D01*
X136106258Y-122289000D01*
X136283742Y-122289000D01*
X136308512Y-122293927D01*
G37*
G36*
X123009674Y-122570465D02*
G01*
X123047367Y-122581899D01*
X123082103Y-122600466D01*
X123112548Y-122625452D01*
X123137534Y-122655897D01*
X123156101Y-122690633D01*
X123167535Y-122728326D01*
X123172000Y-122773661D01*
X123172000Y-123860339D01*
X123167535Y-123905674D01*
X123156101Y-123943367D01*
X123137534Y-123978103D01*
X123112548Y-124008548D01*
X123082103Y-124033534D01*
X123047367Y-124052101D01*
X123009674Y-124063535D01*
X122964339Y-124068000D01*
X122127661Y-124068000D01*
X122082326Y-124063535D01*
X122044633Y-124052101D01*
X122009897Y-124033534D01*
X121979452Y-124008548D01*
X121954466Y-123978103D01*
X121935899Y-123943367D01*
X121924465Y-123905674D01*
X121920000Y-123860339D01*
X121920000Y-122773661D01*
X121924465Y-122728326D01*
X121935899Y-122690633D01*
X121954466Y-122655897D01*
X121979452Y-122625452D01*
X122009897Y-122600466D01*
X122044633Y-122581899D01*
X122082326Y-122570465D01*
X122127661Y-122566000D01*
X122964339Y-122566000D01*
X123009674Y-122570465D01*
G37*
G36*
X125059674Y-122570465D02*
G01*
X125097367Y-122581899D01*
X125132103Y-122600466D01*
X125162548Y-122625452D01*
X125187534Y-122655897D01*
X125206101Y-122690633D01*
X125217535Y-122728326D01*
X125222000Y-122773661D01*
X125222000Y-123860339D01*
X125217535Y-123905674D01*
X125206101Y-123943367D01*
X125187534Y-123978103D01*
X125162548Y-124008548D01*
X125132103Y-124033534D01*
X125097367Y-124052101D01*
X125059674Y-124063535D01*
X125014339Y-124068000D01*
X124177661Y-124068000D01*
X124132326Y-124063535D01*
X124094633Y-124052101D01*
X124059897Y-124033534D01*
X124029452Y-124008548D01*
X124004466Y-123978103D01*
X123985899Y-123943367D01*
X123974465Y-123905674D01*
X123970000Y-123860339D01*
X123970000Y-122773661D01*
X123974465Y-122728326D01*
X123985899Y-122690633D01*
X124004466Y-122655897D01*
X124029452Y-122625452D01*
X124059897Y-122600466D01*
X124094633Y-122581899D01*
X124132326Y-122570465D01*
X124177661Y-122566000D01*
X125014339Y-122566000D01*
X125059674Y-122570465D01*
G37*
G36*
X115153674Y-122443465D02*
G01*
X115191367Y-122454899D01*
X115226103Y-122473466D01*
X115256548Y-122498452D01*
X115281534Y-122528897D01*
X115300101Y-122563633D01*
X115311535Y-122601326D01*
X115316000Y-122646661D01*
X115316000Y-123733339D01*
X115311535Y-123778674D01*
X115300101Y-123816367D01*
X115281534Y-123851103D01*
X115256548Y-123881548D01*
X115226103Y-123906534D01*
X115191367Y-123925101D01*
X115153674Y-123936535D01*
X115108339Y-123941000D01*
X114271661Y-123941000D01*
X114226326Y-123936535D01*
X114188633Y-123925101D01*
X114153897Y-123906534D01*
X114123452Y-123881548D01*
X114098466Y-123851103D01*
X114079899Y-123816367D01*
X114068465Y-123778674D01*
X114064000Y-123733339D01*
X114064000Y-122646661D01*
X114068465Y-122601326D01*
X114079899Y-122563633D01*
X114098466Y-122528897D01*
X114123452Y-122498452D01*
X114153897Y-122473466D01*
X114188633Y-122454899D01*
X114226326Y-122443465D01*
X114271661Y-122439000D01*
X115108339Y-122439000D01*
X115153674Y-122443465D01*
G37*
G36*
X113103674Y-122443465D02*
G01*
X113141367Y-122454899D01*
X113176103Y-122473466D01*
X113206548Y-122498452D01*
X113231534Y-122528897D01*
X113250101Y-122563633D01*
X113261535Y-122601326D01*
X113266000Y-122646661D01*
X113266000Y-123733339D01*
X113261535Y-123778674D01*
X113250101Y-123816367D01*
X113231534Y-123851103D01*
X113206548Y-123881548D01*
X113176103Y-123906534D01*
X113141367Y-123925101D01*
X113103674Y-123936535D01*
X113058339Y-123941000D01*
X112221661Y-123941000D01*
X112176326Y-123936535D01*
X112138633Y-123925101D01*
X112103897Y-123906534D01*
X112073452Y-123881548D01*
X112048466Y-123851103D01*
X112029899Y-123816367D01*
X112018465Y-123778674D01*
X112014000Y-123733339D01*
X112014000Y-122646661D01*
X112018465Y-122601326D01*
X112029899Y-122563633D01*
X112048466Y-122528897D01*
X112073452Y-122498452D01*
X112103897Y-122473466D01*
X112138633Y-122454899D01*
X112176326Y-122443465D01*
X112221661Y-122439000D01*
X113058339Y-122439000D01*
X113103674Y-122443465D01*
G37*
M02*
