G04 #@! TF.GenerationSoftware,KiCad,Pcbnew,(5.1.5-0-10_14)*
G04 #@! TF.CreationDate,2021-09-17T07:52:49+02:00*
G04 #@! TF.ProjectId,Fluke 9010a Probe,466c756b-6520-4393-9031-30612050726f,1.2*
G04 #@! TF.SameCoordinates,Original*
G04 #@! TF.FileFunction,Copper,L2,Bot*
G04 #@! TF.FilePolarity,Positive*
%FSLAX46Y46*%
G04 Gerber Fmt 4.6, Leading zero omitted, Abs format (unit mm)*
G04 Created by KiCad (PCBNEW (5.1.5-0-10_14)) date 2021-09-17 07:52:49*
%MOMM*%
%LPD*%
G04 APERTURE LIST*
%ADD10R,1.700000X1.700000*%
%ADD11C,0.100000*%
%ADD12O,2.500000X2.000000*%
%ADD13O,1.700000X1.700000*%
%ADD14R,1.800000X1.800000*%
%ADD15C,1.800000*%
%ADD16R,0.800000X1.900000*%
%ADD17C,0.800000*%
%ADD18C,0.250000*%
G04 APERTURE END LIST*
D10*
X91567000Y-125730000D03*
G04 #@! TA.AperFunction,SMDPad,CuDef*
D11*
G36*
X129499505Y-125285204D02*
G01*
X129523773Y-125288804D01*
X129547572Y-125294765D01*
X129570671Y-125303030D01*
X129592850Y-125313520D01*
X129613893Y-125326132D01*
X129633599Y-125340747D01*
X129651777Y-125357223D01*
X129668253Y-125375401D01*
X129682868Y-125395107D01*
X129695480Y-125416150D01*
X129705970Y-125438329D01*
X129714235Y-125461428D01*
X129720196Y-125485227D01*
X129723796Y-125509495D01*
X129725000Y-125533999D01*
X129725000Y-126434001D01*
X129723796Y-126458505D01*
X129720196Y-126482773D01*
X129714235Y-126506572D01*
X129705970Y-126529671D01*
X129695480Y-126551850D01*
X129682868Y-126572893D01*
X129668253Y-126592599D01*
X129651777Y-126610777D01*
X129633599Y-126627253D01*
X129613893Y-126641868D01*
X129592850Y-126654480D01*
X129570671Y-126664970D01*
X129547572Y-126673235D01*
X129523773Y-126679196D01*
X129499505Y-126682796D01*
X129475001Y-126684000D01*
X128824999Y-126684000D01*
X128800495Y-126682796D01*
X128776227Y-126679196D01*
X128752428Y-126673235D01*
X128729329Y-126664970D01*
X128707150Y-126654480D01*
X128686107Y-126641868D01*
X128666401Y-126627253D01*
X128648223Y-126610777D01*
X128631747Y-126592599D01*
X128617132Y-126572893D01*
X128604520Y-126551850D01*
X128594030Y-126529671D01*
X128585765Y-126506572D01*
X128579804Y-126482773D01*
X128576204Y-126458505D01*
X128575000Y-126434001D01*
X128575000Y-125533999D01*
X128576204Y-125509495D01*
X128579804Y-125485227D01*
X128585765Y-125461428D01*
X128594030Y-125438329D01*
X128604520Y-125416150D01*
X128617132Y-125395107D01*
X128631747Y-125375401D01*
X128648223Y-125357223D01*
X128666401Y-125340747D01*
X128686107Y-125326132D01*
X128707150Y-125313520D01*
X128729329Y-125303030D01*
X128752428Y-125294765D01*
X128776227Y-125288804D01*
X128800495Y-125285204D01*
X128824999Y-125284000D01*
X129475001Y-125284000D01*
X129499505Y-125285204D01*
G37*
G04 #@! TD.AperFunction*
G04 #@! TA.AperFunction,SMDPad,CuDef*
G36*
X131549505Y-125285204D02*
G01*
X131573773Y-125288804D01*
X131597572Y-125294765D01*
X131620671Y-125303030D01*
X131642850Y-125313520D01*
X131663893Y-125326132D01*
X131683599Y-125340747D01*
X131701777Y-125357223D01*
X131718253Y-125375401D01*
X131732868Y-125395107D01*
X131745480Y-125416150D01*
X131755970Y-125438329D01*
X131764235Y-125461428D01*
X131770196Y-125485227D01*
X131773796Y-125509495D01*
X131775000Y-125533999D01*
X131775000Y-126434001D01*
X131773796Y-126458505D01*
X131770196Y-126482773D01*
X131764235Y-126506572D01*
X131755970Y-126529671D01*
X131745480Y-126551850D01*
X131732868Y-126572893D01*
X131718253Y-126592599D01*
X131701777Y-126610777D01*
X131683599Y-126627253D01*
X131663893Y-126641868D01*
X131642850Y-126654480D01*
X131620671Y-126664970D01*
X131597572Y-126673235D01*
X131573773Y-126679196D01*
X131549505Y-126682796D01*
X131525001Y-126684000D01*
X130874999Y-126684000D01*
X130850495Y-126682796D01*
X130826227Y-126679196D01*
X130802428Y-126673235D01*
X130779329Y-126664970D01*
X130757150Y-126654480D01*
X130736107Y-126641868D01*
X130716401Y-126627253D01*
X130698223Y-126610777D01*
X130681747Y-126592599D01*
X130667132Y-126572893D01*
X130654520Y-126551850D01*
X130644030Y-126529671D01*
X130635765Y-126506572D01*
X130629804Y-126482773D01*
X130626204Y-126458505D01*
X130625000Y-126434001D01*
X130625000Y-125533999D01*
X130626204Y-125509495D01*
X130629804Y-125485227D01*
X130635765Y-125461428D01*
X130644030Y-125438329D01*
X130654520Y-125416150D01*
X130667132Y-125395107D01*
X130681747Y-125375401D01*
X130698223Y-125357223D01*
X130716401Y-125340747D01*
X130736107Y-125326132D01*
X130757150Y-125313520D01*
X130779329Y-125303030D01*
X130802428Y-125294765D01*
X130826227Y-125288804D01*
X130850495Y-125285204D01*
X130874999Y-125284000D01*
X131525001Y-125284000D01*
X131549505Y-125285204D01*
G37*
G04 #@! TD.AperFunction*
D12*
X133655000Y-125730000D03*
D13*
X128575000Y-123190000D03*
X131115000Y-123190000D03*
X136195000Y-123190000D03*
X138735000Y-123190000D03*
X138735000Y-125730000D03*
X128575000Y-128270000D03*
X131115000Y-128270000D03*
X136195000Y-128270000D03*
D10*
X138735000Y-128270000D03*
G04 #@! TA.AperFunction,SMDPad,CuDef*
D11*
G36*
X110910505Y-123031204D02*
G01*
X110934773Y-123034804D01*
X110958572Y-123040765D01*
X110981671Y-123049030D01*
X111003850Y-123059520D01*
X111024893Y-123072132D01*
X111044599Y-123086747D01*
X111062777Y-123103223D01*
X111079253Y-123121401D01*
X111093868Y-123141107D01*
X111106480Y-123162150D01*
X111116970Y-123184329D01*
X111125235Y-123207428D01*
X111131196Y-123231227D01*
X111134796Y-123255495D01*
X111136000Y-123279999D01*
X111136000Y-124180001D01*
X111134796Y-124204505D01*
X111131196Y-124228773D01*
X111125235Y-124252572D01*
X111116970Y-124275671D01*
X111106480Y-124297850D01*
X111093868Y-124318893D01*
X111079253Y-124338599D01*
X111062777Y-124356777D01*
X111044599Y-124373253D01*
X111024893Y-124387868D01*
X111003850Y-124400480D01*
X110981671Y-124410970D01*
X110958572Y-124419235D01*
X110934773Y-124425196D01*
X110910505Y-124428796D01*
X110886001Y-124430000D01*
X109585999Y-124430000D01*
X109561495Y-124428796D01*
X109537227Y-124425196D01*
X109513428Y-124419235D01*
X109490329Y-124410970D01*
X109468150Y-124400480D01*
X109447107Y-124387868D01*
X109427401Y-124373253D01*
X109409223Y-124356777D01*
X109392747Y-124338599D01*
X109378132Y-124318893D01*
X109365520Y-124297850D01*
X109355030Y-124275671D01*
X109346765Y-124252572D01*
X109340804Y-124228773D01*
X109337204Y-124204505D01*
X109336000Y-124180001D01*
X109336000Y-123279999D01*
X109337204Y-123255495D01*
X109340804Y-123231227D01*
X109346765Y-123207428D01*
X109355030Y-123184329D01*
X109365520Y-123162150D01*
X109378132Y-123141107D01*
X109392747Y-123121401D01*
X109409223Y-123103223D01*
X109427401Y-123086747D01*
X109447107Y-123072132D01*
X109468150Y-123059520D01*
X109490329Y-123049030D01*
X109513428Y-123040765D01*
X109537227Y-123034804D01*
X109561495Y-123031204D01*
X109585999Y-123030000D01*
X110886001Y-123030000D01*
X110910505Y-123031204D01*
G37*
G04 #@! TD.AperFunction*
G04 #@! TA.AperFunction,SMDPad,CuDef*
G36*
X110910505Y-127031204D02*
G01*
X110934773Y-127034804D01*
X110958572Y-127040765D01*
X110981671Y-127049030D01*
X111003850Y-127059520D01*
X111024893Y-127072132D01*
X111044599Y-127086747D01*
X111062777Y-127103223D01*
X111079253Y-127121401D01*
X111093868Y-127141107D01*
X111106480Y-127162150D01*
X111116970Y-127184329D01*
X111125235Y-127207428D01*
X111131196Y-127231227D01*
X111134796Y-127255495D01*
X111136000Y-127279999D01*
X111136000Y-128180001D01*
X111134796Y-128204505D01*
X111131196Y-128228773D01*
X111125235Y-128252572D01*
X111116970Y-128275671D01*
X111106480Y-128297850D01*
X111093868Y-128318893D01*
X111079253Y-128338599D01*
X111062777Y-128356777D01*
X111044599Y-128373253D01*
X111024893Y-128387868D01*
X111003850Y-128400480D01*
X110981671Y-128410970D01*
X110958572Y-128419235D01*
X110934773Y-128425196D01*
X110910505Y-128428796D01*
X110886001Y-128430000D01*
X109585999Y-128430000D01*
X109561495Y-128428796D01*
X109537227Y-128425196D01*
X109513428Y-128419235D01*
X109490329Y-128410970D01*
X109468150Y-128400480D01*
X109447107Y-128387868D01*
X109427401Y-128373253D01*
X109409223Y-128356777D01*
X109392747Y-128338599D01*
X109378132Y-128318893D01*
X109365520Y-128297850D01*
X109355030Y-128275671D01*
X109346765Y-128252572D01*
X109340804Y-128228773D01*
X109337204Y-128204505D01*
X109336000Y-128180001D01*
X109336000Y-127279999D01*
X109337204Y-127255495D01*
X109340804Y-127231227D01*
X109346765Y-127207428D01*
X109355030Y-127184329D01*
X109365520Y-127162150D01*
X109378132Y-127141107D01*
X109392747Y-127121401D01*
X109409223Y-127103223D01*
X109427401Y-127086747D01*
X109447107Y-127072132D01*
X109468150Y-127059520D01*
X109490329Y-127049030D01*
X109513428Y-127040765D01*
X109537227Y-127034804D01*
X109561495Y-127031204D01*
X109585999Y-127030000D01*
X110886001Y-127030000D01*
X110910505Y-127031204D01*
G37*
G04 #@! TD.AperFunction*
G04 #@! TA.AperFunction,SMDPad,CuDef*
G36*
X117006505Y-127031204D02*
G01*
X117030773Y-127034804D01*
X117054572Y-127040765D01*
X117077671Y-127049030D01*
X117099850Y-127059520D01*
X117120893Y-127072132D01*
X117140599Y-127086747D01*
X117158777Y-127103223D01*
X117175253Y-127121401D01*
X117189868Y-127141107D01*
X117202480Y-127162150D01*
X117212970Y-127184329D01*
X117221235Y-127207428D01*
X117227196Y-127231227D01*
X117230796Y-127255495D01*
X117232000Y-127279999D01*
X117232000Y-128180001D01*
X117230796Y-128204505D01*
X117227196Y-128228773D01*
X117221235Y-128252572D01*
X117212970Y-128275671D01*
X117202480Y-128297850D01*
X117189868Y-128318893D01*
X117175253Y-128338599D01*
X117158777Y-128356777D01*
X117140599Y-128373253D01*
X117120893Y-128387868D01*
X117099850Y-128400480D01*
X117077671Y-128410970D01*
X117054572Y-128419235D01*
X117030773Y-128425196D01*
X117006505Y-128428796D01*
X116982001Y-128430000D01*
X115681999Y-128430000D01*
X115657495Y-128428796D01*
X115633227Y-128425196D01*
X115609428Y-128419235D01*
X115586329Y-128410970D01*
X115564150Y-128400480D01*
X115543107Y-128387868D01*
X115523401Y-128373253D01*
X115505223Y-128356777D01*
X115488747Y-128338599D01*
X115474132Y-128318893D01*
X115461520Y-128297850D01*
X115451030Y-128275671D01*
X115442765Y-128252572D01*
X115436804Y-128228773D01*
X115433204Y-128204505D01*
X115432000Y-128180001D01*
X115432000Y-127279999D01*
X115433204Y-127255495D01*
X115436804Y-127231227D01*
X115442765Y-127207428D01*
X115451030Y-127184329D01*
X115461520Y-127162150D01*
X115474132Y-127141107D01*
X115488747Y-127121401D01*
X115505223Y-127103223D01*
X115523401Y-127086747D01*
X115543107Y-127072132D01*
X115564150Y-127059520D01*
X115586329Y-127049030D01*
X115609428Y-127040765D01*
X115633227Y-127034804D01*
X115657495Y-127031204D01*
X115681999Y-127030000D01*
X116982001Y-127030000D01*
X117006505Y-127031204D01*
G37*
G04 #@! TD.AperFunction*
G04 #@! TA.AperFunction,SMDPad,CuDef*
G36*
X117006505Y-123031204D02*
G01*
X117030773Y-123034804D01*
X117054572Y-123040765D01*
X117077671Y-123049030D01*
X117099850Y-123059520D01*
X117120893Y-123072132D01*
X117140599Y-123086747D01*
X117158777Y-123103223D01*
X117175253Y-123121401D01*
X117189868Y-123141107D01*
X117202480Y-123162150D01*
X117212970Y-123184329D01*
X117221235Y-123207428D01*
X117227196Y-123231227D01*
X117230796Y-123255495D01*
X117232000Y-123279999D01*
X117232000Y-124180001D01*
X117230796Y-124204505D01*
X117227196Y-124228773D01*
X117221235Y-124252572D01*
X117212970Y-124275671D01*
X117202480Y-124297850D01*
X117189868Y-124318893D01*
X117175253Y-124338599D01*
X117158777Y-124356777D01*
X117140599Y-124373253D01*
X117120893Y-124387868D01*
X117099850Y-124400480D01*
X117077671Y-124410970D01*
X117054572Y-124419235D01*
X117030773Y-124425196D01*
X117006505Y-124428796D01*
X116982001Y-124430000D01*
X115681999Y-124430000D01*
X115657495Y-124428796D01*
X115633227Y-124425196D01*
X115609428Y-124419235D01*
X115586329Y-124410970D01*
X115564150Y-124400480D01*
X115543107Y-124387868D01*
X115523401Y-124373253D01*
X115505223Y-124356777D01*
X115488747Y-124338599D01*
X115474132Y-124318893D01*
X115461520Y-124297850D01*
X115451030Y-124275671D01*
X115442765Y-124252572D01*
X115436804Y-124228773D01*
X115433204Y-124204505D01*
X115432000Y-124180001D01*
X115432000Y-123279999D01*
X115433204Y-123255495D01*
X115436804Y-123231227D01*
X115442765Y-123207428D01*
X115451030Y-123184329D01*
X115461520Y-123162150D01*
X115474132Y-123141107D01*
X115488747Y-123121401D01*
X115505223Y-123103223D01*
X115523401Y-123086747D01*
X115543107Y-123072132D01*
X115564150Y-123059520D01*
X115586329Y-123049030D01*
X115609428Y-123040765D01*
X115633227Y-123034804D01*
X115657495Y-123031204D01*
X115681999Y-123030000D01*
X116982001Y-123030000D01*
X117006505Y-123031204D01*
G37*
G04 #@! TD.AperFunction*
G04 #@! TA.AperFunction,SMDPad,CuDef*
G36*
X99915505Y-126435204D02*
G01*
X99939773Y-126438804D01*
X99963572Y-126444765D01*
X99986671Y-126453030D01*
X100008850Y-126463520D01*
X100029893Y-126476132D01*
X100049599Y-126490747D01*
X100067777Y-126507223D01*
X100084253Y-126525401D01*
X100098868Y-126545107D01*
X100111480Y-126566150D01*
X100121970Y-126588329D01*
X100130235Y-126611428D01*
X100136196Y-126635227D01*
X100139796Y-126659495D01*
X100141000Y-126683999D01*
X100141000Y-127334001D01*
X100139796Y-127358505D01*
X100136196Y-127382773D01*
X100130235Y-127406572D01*
X100121970Y-127429671D01*
X100111480Y-127451850D01*
X100098868Y-127472893D01*
X100084253Y-127492599D01*
X100067777Y-127510777D01*
X100049599Y-127527253D01*
X100029893Y-127541868D01*
X100008850Y-127554480D01*
X99986671Y-127564970D01*
X99963572Y-127573235D01*
X99939773Y-127579196D01*
X99915505Y-127582796D01*
X99891001Y-127584000D01*
X98990999Y-127584000D01*
X98966495Y-127582796D01*
X98942227Y-127579196D01*
X98918428Y-127573235D01*
X98895329Y-127564970D01*
X98873150Y-127554480D01*
X98852107Y-127541868D01*
X98832401Y-127527253D01*
X98814223Y-127510777D01*
X98797747Y-127492599D01*
X98783132Y-127472893D01*
X98770520Y-127451850D01*
X98760030Y-127429671D01*
X98751765Y-127406572D01*
X98745804Y-127382773D01*
X98742204Y-127358505D01*
X98741000Y-127334001D01*
X98741000Y-126683999D01*
X98742204Y-126659495D01*
X98745804Y-126635227D01*
X98751765Y-126611428D01*
X98760030Y-126588329D01*
X98770520Y-126566150D01*
X98783132Y-126545107D01*
X98797747Y-126525401D01*
X98814223Y-126507223D01*
X98832401Y-126490747D01*
X98852107Y-126476132D01*
X98873150Y-126463520D01*
X98895329Y-126453030D01*
X98918428Y-126444765D01*
X98942227Y-126438804D01*
X98966495Y-126435204D01*
X98990999Y-126434000D01*
X99891001Y-126434000D01*
X99915505Y-126435204D01*
G37*
G04 #@! TD.AperFunction*
G04 #@! TA.AperFunction,SMDPad,CuDef*
G36*
X99915505Y-124385204D02*
G01*
X99939773Y-124388804D01*
X99963572Y-124394765D01*
X99986671Y-124403030D01*
X100008850Y-124413520D01*
X100029893Y-124426132D01*
X100049599Y-124440747D01*
X100067777Y-124457223D01*
X100084253Y-124475401D01*
X100098868Y-124495107D01*
X100111480Y-124516150D01*
X100121970Y-124538329D01*
X100130235Y-124561428D01*
X100136196Y-124585227D01*
X100139796Y-124609495D01*
X100141000Y-124633999D01*
X100141000Y-125284001D01*
X100139796Y-125308505D01*
X100136196Y-125332773D01*
X100130235Y-125356572D01*
X100121970Y-125379671D01*
X100111480Y-125401850D01*
X100098868Y-125422893D01*
X100084253Y-125442599D01*
X100067777Y-125460777D01*
X100049599Y-125477253D01*
X100029893Y-125491868D01*
X100008850Y-125504480D01*
X99986671Y-125514970D01*
X99963572Y-125523235D01*
X99939773Y-125529196D01*
X99915505Y-125532796D01*
X99891001Y-125534000D01*
X98990999Y-125534000D01*
X98966495Y-125532796D01*
X98942227Y-125529196D01*
X98918428Y-125523235D01*
X98895329Y-125514970D01*
X98873150Y-125504480D01*
X98852107Y-125491868D01*
X98832401Y-125477253D01*
X98814223Y-125460777D01*
X98797747Y-125442599D01*
X98783132Y-125422893D01*
X98770520Y-125401850D01*
X98760030Y-125379671D01*
X98751765Y-125356572D01*
X98745804Y-125332773D01*
X98742204Y-125308505D01*
X98741000Y-125284001D01*
X98741000Y-124633999D01*
X98742204Y-124609495D01*
X98745804Y-124585227D01*
X98751765Y-124561428D01*
X98760030Y-124538329D01*
X98770520Y-124516150D01*
X98783132Y-124495107D01*
X98797747Y-124475401D01*
X98814223Y-124457223D01*
X98832401Y-124440747D01*
X98852107Y-124426132D01*
X98873150Y-124413520D01*
X98895329Y-124403030D01*
X98918428Y-124394765D01*
X98942227Y-124388804D01*
X98966495Y-124385204D01*
X98990999Y-124384000D01*
X99891001Y-124384000D01*
X99915505Y-124385204D01*
G37*
G04 #@! TD.AperFunction*
G04 #@! TA.AperFunction,SMDPad,CuDef*
G36*
X123156505Y-126036204D02*
G01*
X123180773Y-126039804D01*
X123204572Y-126045765D01*
X123227671Y-126054030D01*
X123249850Y-126064520D01*
X123270893Y-126077132D01*
X123290599Y-126091747D01*
X123308777Y-126108223D01*
X123325253Y-126126401D01*
X123339868Y-126146107D01*
X123352480Y-126167150D01*
X123362970Y-126189329D01*
X123371235Y-126212428D01*
X123377196Y-126236227D01*
X123380796Y-126260495D01*
X123382000Y-126284999D01*
X123382000Y-126935001D01*
X123380796Y-126959505D01*
X123377196Y-126983773D01*
X123371235Y-127007572D01*
X123362970Y-127030671D01*
X123352480Y-127052850D01*
X123339868Y-127073893D01*
X123325253Y-127093599D01*
X123308777Y-127111777D01*
X123290599Y-127128253D01*
X123270893Y-127142868D01*
X123249850Y-127155480D01*
X123227671Y-127165970D01*
X123204572Y-127174235D01*
X123180773Y-127180196D01*
X123156505Y-127183796D01*
X123132001Y-127185000D01*
X122231999Y-127185000D01*
X122207495Y-127183796D01*
X122183227Y-127180196D01*
X122159428Y-127174235D01*
X122136329Y-127165970D01*
X122114150Y-127155480D01*
X122093107Y-127142868D01*
X122073401Y-127128253D01*
X122055223Y-127111777D01*
X122038747Y-127093599D01*
X122024132Y-127073893D01*
X122011520Y-127052850D01*
X122001030Y-127030671D01*
X121992765Y-127007572D01*
X121986804Y-126983773D01*
X121983204Y-126959505D01*
X121982000Y-126935001D01*
X121982000Y-126284999D01*
X121983204Y-126260495D01*
X121986804Y-126236227D01*
X121992765Y-126212428D01*
X122001030Y-126189329D01*
X122011520Y-126167150D01*
X122024132Y-126146107D01*
X122038747Y-126126401D01*
X122055223Y-126108223D01*
X122073401Y-126091747D01*
X122093107Y-126077132D01*
X122114150Y-126064520D01*
X122136329Y-126054030D01*
X122159428Y-126045765D01*
X122183227Y-126039804D01*
X122207495Y-126036204D01*
X122231999Y-126035000D01*
X123132001Y-126035000D01*
X123156505Y-126036204D01*
G37*
G04 #@! TD.AperFunction*
G04 #@! TA.AperFunction,SMDPad,CuDef*
G36*
X123156505Y-128086204D02*
G01*
X123180773Y-128089804D01*
X123204572Y-128095765D01*
X123227671Y-128104030D01*
X123249850Y-128114520D01*
X123270893Y-128127132D01*
X123290599Y-128141747D01*
X123308777Y-128158223D01*
X123325253Y-128176401D01*
X123339868Y-128196107D01*
X123352480Y-128217150D01*
X123362970Y-128239329D01*
X123371235Y-128262428D01*
X123377196Y-128286227D01*
X123380796Y-128310495D01*
X123382000Y-128334999D01*
X123382000Y-128985001D01*
X123380796Y-129009505D01*
X123377196Y-129033773D01*
X123371235Y-129057572D01*
X123362970Y-129080671D01*
X123352480Y-129102850D01*
X123339868Y-129123893D01*
X123325253Y-129143599D01*
X123308777Y-129161777D01*
X123290599Y-129178253D01*
X123270893Y-129192868D01*
X123249850Y-129205480D01*
X123227671Y-129215970D01*
X123204572Y-129224235D01*
X123180773Y-129230196D01*
X123156505Y-129233796D01*
X123132001Y-129235000D01*
X122231999Y-129235000D01*
X122207495Y-129233796D01*
X122183227Y-129230196D01*
X122159428Y-129224235D01*
X122136329Y-129215970D01*
X122114150Y-129205480D01*
X122093107Y-129192868D01*
X122073401Y-129178253D01*
X122055223Y-129161777D01*
X122038747Y-129143599D01*
X122024132Y-129123893D01*
X122011520Y-129102850D01*
X122001030Y-129080671D01*
X121992765Y-129057572D01*
X121986804Y-129033773D01*
X121983204Y-129009505D01*
X121982000Y-128985001D01*
X121982000Y-128334999D01*
X121983204Y-128310495D01*
X121986804Y-128286227D01*
X121992765Y-128262428D01*
X122001030Y-128239329D01*
X122011520Y-128217150D01*
X122024132Y-128196107D01*
X122038747Y-128176401D01*
X122055223Y-128158223D01*
X122073401Y-128141747D01*
X122093107Y-128127132D01*
X122114150Y-128114520D01*
X122136329Y-128104030D01*
X122159428Y-128095765D01*
X122183227Y-128089804D01*
X122207495Y-128086204D01*
X122231999Y-128085000D01*
X123132001Y-128085000D01*
X123156505Y-128086204D01*
G37*
G04 #@! TD.AperFunction*
G04 #@! TA.AperFunction,SMDPad,CuDef*
G36*
X125072505Y-122618204D02*
G01*
X125096773Y-122621804D01*
X125120572Y-122627765D01*
X125143671Y-122636030D01*
X125165850Y-122646520D01*
X125186893Y-122659132D01*
X125206599Y-122673747D01*
X125224777Y-122690223D01*
X125241253Y-122708401D01*
X125255868Y-122728107D01*
X125268480Y-122749150D01*
X125278970Y-122771329D01*
X125287235Y-122794428D01*
X125293196Y-122818227D01*
X125296796Y-122842495D01*
X125298000Y-122866999D01*
X125298000Y-123767001D01*
X125296796Y-123791505D01*
X125293196Y-123815773D01*
X125287235Y-123839572D01*
X125278970Y-123862671D01*
X125268480Y-123884850D01*
X125255868Y-123905893D01*
X125241253Y-123925599D01*
X125224777Y-123943777D01*
X125206599Y-123960253D01*
X125186893Y-123974868D01*
X125165850Y-123987480D01*
X125143671Y-123997970D01*
X125120572Y-124006235D01*
X125096773Y-124012196D01*
X125072505Y-124015796D01*
X125048001Y-124017000D01*
X124397999Y-124017000D01*
X124373495Y-124015796D01*
X124349227Y-124012196D01*
X124325428Y-124006235D01*
X124302329Y-123997970D01*
X124280150Y-123987480D01*
X124259107Y-123974868D01*
X124239401Y-123960253D01*
X124221223Y-123943777D01*
X124204747Y-123925599D01*
X124190132Y-123905893D01*
X124177520Y-123884850D01*
X124167030Y-123862671D01*
X124158765Y-123839572D01*
X124152804Y-123815773D01*
X124149204Y-123791505D01*
X124148000Y-123767001D01*
X124148000Y-122866999D01*
X124149204Y-122842495D01*
X124152804Y-122818227D01*
X124158765Y-122794428D01*
X124167030Y-122771329D01*
X124177520Y-122749150D01*
X124190132Y-122728107D01*
X124204747Y-122708401D01*
X124221223Y-122690223D01*
X124239401Y-122673747D01*
X124259107Y-122659132D01*
X124280150Y-122646520D01*
X124302329Y-122636030D01*
X124325428Y-122627765D01*
X124349227Y-122621804D01*
X124373495Y-122618204D01*
X124397999Y-122617000D01*
X125048001Y-122617000D01*
X125072505Y-122618204D01*
G37*
G04 #@! TD.AperFunction*
G04 #@! TA.AperFunction,SMDPad,CuDef*
G36*
X123022505Y-122618204D02*
G01*
X123046773Y-122621804D01*
X123070572Y-122627765D01*
X123093671Y-122636030D01*
X123115850Y-122646520D01*
X123136893Y-122659132D01*
X123156599Y-122673747D01*
X123174777Y-122690223D01*
X123191253Y-122708401D01*
X123205868Y-122728107D01*
X123218480Y-122749150D01*
X123228970Y-122771329D01*
X123237235Y-122794428D01*
X123243196Y-122818227D01*
X123246796Y-122842495D01*
X123248000Y-122866999D01*
X123248000Y-123767001D01*
X123246796Y-123791505D01*
X123243196Y-123815773D01*
X123237235Y-123839572D01*
X123228970Y-123862671D01*
X123218480Y-123884850D01*
X123205868Y-123905893D01*
X123191253Y-123925599D01*
X123174777Y-123943777D01*
X123156599Y-123960253D01*
X123136893Y-123974868D01*
X123115850Y-123987480D01*
X123093671Y-123997970D01*
X123070572Y-124006235D01*
X123046773Y-124012196D01*
X123022505Y-124015796D01*
X122998001Y-124017000D01*
X122347999Y-124017000D01*
X122323495Y-124015796D01*
X122299227Y-124012196D01*
X122275428Y-124006235D01*
X122252329Y-123997970D01*
X122230150Y-123987480D01*
X122209107Y-123974868D01*
X122189401Y-123960253D01*
X122171223Y-123943777D01*
X122154747Y-123925599D01*
X122140132Y-123905893D01*
X122127520Y-123884850D01*
X122117030Y-123862671D01*
X122108765Y-123839572D01*
X122102804Y-123815773D01*
X122099204Y-123791505D01*
X122098000Y-123767001D01*
X122098000Y-122866999D01*
X122099204Y-122842495D01*
X122102804Y-122818227D01*
X122108765Y-122794428D01*
X122117030Y-122771329D01*
X122127520Y-122749150D01*
X122140132Y-122728107D01*
X122154747Y-122708401D01*
X122171223Y-122690223D01*
X122189401Y-122673747D01*
X122209107Y-122659132D01*
X122230150Y-122646520D01*
X122252329Y-122636030D01*
X122275428Y-122627765D01*
X122299227Y-122621804D01*
X122323495Y-122618204D01*
X122347999Y-122617000D01*
X122998001Y-122617000D01*
X123022505Y-122618204D01*
G37*
G04 #@! TD.AperFunction*
D14*
X103124000Y-127000000D03*
D15*
X103124000Y-124460000D03*
X107696000Y-124460000D03*
D14*
X107696000Y-127000000D03*
D16*
X120330000Y-126976000D03*
X118430000Y-126976000D03*
X119380000Y-123976000D03*
X113284000Y-124230000D03*
X112334000Y-127230000D03*
X114234000Y-127230000D03*
G04 #@! TA.AperFunction,SMDPad,CuDef*
D11*
G36*
X95590505Y-125031204D02*
G01*
X95614773Y-125034804D01*
X95638572Y-125040765D01*
X95661671Y-125049030D01*
X95683850Y-125059520D01*
X95704893Y-125072132D01*
X95724599Y-125086747D01*
X95742777Y-125103223D01*
X95759253Y-125121401D01*
X95773868Y-125141107D01*
X95786480Y-125162150D01*
X95796970Y-125184329D01*
X95805235Y-125207428D01*
X95811196Y-125231227D01*
X95814796Y-125255495D01*
X95816000Y-125279999D01*
X95816000Y-126180001D01*
X95814796Y-126204505D01*
X95811196Y-126228773D01*
X95805235Y-126252572D01*
X95796970Y-126275671D01*
X95786480Y-126297850D01*
X95773868Y-126318893D01*
X95759253Y-126338599D01*
X95742777Y-126356777D01*
X95724599Y-126373253D01*
X95704893Y-126387868D01*
X95683850Y-126400480D01*
X95661671Y-126410970D01*
X95638572Y-126419235D01*
X95614773Y-126425196D01*
X95590505Y-126428796D01*
X95566001Y-126430000D01*
X94915999Y-126430000D01*
X94891495Y-126428796D01*
X94867227Y-126425196D01*
X94843428Y-126419235D01*
X94820329Y-126410970D01*
X94798150Y-126400480D01*
X94777107Y-126387868D01*
X94757401Y-126373253D01*
X94739223Y-126356777D01*
X94722747Y-126338599D01*
X94708132Y-126318893D01*
X94695520Y-126297850D01*
X94685030Y-126275671D01*
X94676765Y-126252572D01*
X94670804Y-126228773D01*
X94667204Y-126204505D01*
X94666000Y-126180001D01*
X94666000Y-125279999D01*
X94667204Y-125255495D01*
X94670804Y-125231227D01*
X94676765Y-125207428D01*
X94685030Y-125184329D01*
X94695520Y-125162150D01*
X94708132Y-125141107D01*
X94722747Y-125121401D01*
X94739223Y-125103223D01*
X94757401Y-125086747D01*
X94777107Y-125072132D01*
X94798150Y-125059520D01*
X94820329Y-125049030D01*
X94843428Y-125040765D01*
X94867227Y-125034804D01*
X94891495Y-125031204D01*
X94915999Y-125030000D01*
X95566001Y-125030000D01*
X95590505Y-125031204D01*
G37*
G04 #@! TD.AperFunction*
G04 #@! TA.AperFunction,SMDPad,CuDef*
G36*
X97640505Y-125031204D02*
G01*
X97664773Y-125034804D01*
X97688572Y-125040765D01*
X97711671Y-125049030D01*
X97733850Y-125059520D01*
X97754893Y-125072132D01*
X97774599Y-125086747D01*
X97792777Y-125103223D01*
X97809253Y-125121401D01*
X97823868Y-125141107D01*
X97836480Y-125162150D01*
X97846970Y-125184329D01*
X97855235Y-125207428D01*
X97861196Y-125231227D01*
X97864796Y-125255495D01*
X97866000Y-125279999D01*
X97866000Y-126180001D01*
X97864796Y-126204505D01*
X97861196Y-126228773D01*
X97855235Y-126252572D01*
X97846970Y-126275671D01*
X97836480Y-126297850D01*
X97823868Y-126318893D01*
X97809253Y-126338599D01*
X97792777Y-126356777D01*
X97774599Y-126373253D01*
X97754893Y-126387868D01*
X97733850Y-126400480D01*
X97711671Y-126410970D01*
X97688572Y-126419235D01*
X97664773Y-126425196D01*
X97640505Y-126428796D01*
X97616001Y-126430000D01*
X96965999Y-126430000D01*
X96941495Y-126428796D01*
X96917227Y-126425196D01*
X96893428Y-126419235D01*
X96870329Y-126410970D01*
X96848150Y-126400480D01*
X96827107Y-126387868D01*
X96807401Y-126373253D01*
X96789223Y-126356777D01*
X96772747Y-126338599D01*
X96758132Y-126318893D01*
X96745520Y-126297850D01*
X96735030Y-126275671D01*
X96726765Y-126252572D01*
X96720804Y-126228773D01*
X96717204Y-126204505D01*
X96716000Y-126180001D01*
X96716000Y-125279999D01*
X96717204Y-125255495D01*
X96720804Y-125231227D01*
X96726765Y-125207428D01*
X96735030Y-125184329D01*
X96745520Y-125162150D01*
X96758132Y-125141107D01*
X96772747Y-125121401D01*
X96789223Y-125103223D01*
X96807401Y-125086747D01*
X96827107Y-125072132D01*
X96848150Y-125059520D01*
X96870329Y-125049030D01*
X96893428Y-125040765D01*
X96917227Y-125034804D01*
X96941495Y-125031204D01*
X96965999Y-125030000D01*
X97616001Y-125030000D01*
X97640505Y-125031204D01*
G37*
G04 #@! TD.AperFunction*
G04 #@! TA.AperFunction,SMDPad,CuDef*
G36*
X126077505Y-126036204D02*
G01*
X126101773Y-126039804D01*
X126125572Y-126045765D01*
X126148671Y-126054030D01*
X126170850Y-126064520D01*
X126191893Y-126077132D01*
X126211599Y-126091747D01*
X126229777Y-126108223D01*
X126246253Y-126126401D01*
X126260868Y-126146107D01*
X126273480Y-126167150D01*
X126283970Y-126189329D01*
X126292235Y-126212428D01*
X126298196Y-126236227D01*
X126301796Y-126260495D01*
X126303000Y-126284999D01*
X126303000Y-126935001D01*
X126301796Y-126959505D01*
X126298196Y-126983773D01*
X126292235Y-127007572D01*
X126283970Y-127030671D01*
X126273480Y-127052850D01*
X126260868Y-127073893D01*
X126246253Y-127093599D01*
X126229777Y-127111777D01*
X126211599Y-127128253D01*
X126191893Y-127142868D01*
X126170850Y-127155480D01*
X126148671Y-127165970D01*
X126125572Y-127174235D01*
X126101773Y-127180196D01*
X126077505Y-127183796D01*
X126053001Y-127185000D01*
X125152999Y-127185000D01*
X125128495Y-127183796D01*
X125104227Y-127180196D01*
X125080428Y-127174235D01*
X125057329Y-127165970D01*
X125035150Y-127155480D01*
X125014107Y-127142868D01*
X124994401Y-127128253D01*
X124976223Y-127111777D01*
X124959747Y-127093599D01*
X124945132Y-127073893D01*
X124932520Y-127052850D01*
X124922030Y-127030671D01*
X124913765Y-127007572D01*
X124907804Y-126983773D01*
X124904204Y-126959505D01*
X124903000Y-126935001D01*
X124903000Y-126284999D01*
X124904204Y-126260495D01*
X124907804Y-126236227D01*
X124913765Y-126212428D01*
X124922030Y-126189329D01*
X124932520Y-126167150D01*
X124945132Y-126146107D01*
X124959747Y-126126401D01*
X124976223Y-126108223D01*
X124994401Y-126091747D01*
X125014107Y-126077132D01*
X125035150Y-126064520D01*
X125057329Y-126054030D01*
X125080428Y-126045765D01*
X125104227Y-126039804D01*
X125128495Y-126036204D01*
X125152999Y-126035000D01*
X126053001Y-126035000D01*
X126077505Y-126036204D01*
G37*
G04 #@! TD.AperFunction*
G04 #@! TA.AperFunction,SMDPad,CuDef*
G36*
X126077505Y-128086204D02*
G01*
X126101773Y-128089804D01*
X126125572Y-128095765D01*
X126148671Y-128104030D01*
X126170850Y-128114520D01*
X126191893Y-128127132D01*
X126211599Y-128141747D01*
X126229777Y-128158223D01*
X126246253Y-128176401D01*
X126260868Y-128196107D01*
X126273480Y-128217150D01*
X126283970Y-128239329D01*
X126292235Y-128262428D01*
X126298196Y-128286227D01*
X126301796Y-128310495D01*
X126303000Y-128334999D01*
X126303000Y-128985001D01*
X126301796Y-129009505D01*
X126298196Y-129033773D01*
X126292235Y-129057572D01*
X126283970Y-129080671D01*
X126273480Y-129102850D01*
X126260868Y-129123893D01*
X126246253Y-129143599D01*
X126229777Y-129161777D01*
X126211599Y-129178253D01*
X126191893Y-129192868D01*
X126170850Y-129205480D01*
X126148671Y-129215970D01*
X126125572Y-129224235D01*
X126101773Y-129230196D01*
X126077505Y-129233796D01*
X126053001Y-129235000D01*
X125152999Y-129235000D01*
X125128495Y-129233796D01*
X125104227Y-129230196D01*
X125080428Y-129224235D01*
X125057329Y-129215970D01*
X125035150Y-129205480D01*
X125014107Y-129192868D01*
X124994401Y-129178253D01*
X124976223Y-129161777D01*
X124959747Y-129143599D01*
X124945132Y-129123893D01*
X124932520Y-129102850D01*
X124922030Y-129080671D01*
X124913765Y-129057572D01*
X124907804Y-129033773D01*
X124904204Y-129009505D01*
X124903000Y-128985001D01*
X124903000Y-128334999D01*
X124904204Y-128310495D01*
X124907804Y-128286227D01*
X124913765Y-128262428D01*
X124922030Y-128239329D01*
X124932520Y-128217150D01*
X124945132Y-128196107D01*
X124959747Y-128176401D01*
X124976223Y-128158223D01*
X124994401Y-128141747D01*
X125014107Y-128127132D01*
X125035150Y-128114520D01*
X125057329Y-128104030D01*
X125080428Y-128095765D01*
X125104227Y-128089804D01*
X125128495Y-128086204D01*
X125152999Y-128085000D01*
X126053001Y-128085000D01*
X126077505Y-128086204D01*
G37*
G04 #@! TD.AperFunction*
D17*
X124504000Y-125012800D03*
X116863100Y-125521400D03*
X119184900Y-129081900D03*
D18*
X131064000Y-128219000D02*
X131064000Y-127000000D01*
X131115000Y-128270000D02*
X131064000Y-128219000D01*
X120330000Y-126976000D02*
X121055300Y-126976000D01*
X121771800Y-127692500D02*
X126664700Y-127692500D01*
X127262201Y-127094999D02*
X131031999Y-127094999D01*
X131031999Y-127094999D02*
X131064000Y-127127000D01*
X126664700Y-127692500D02*
X127262201Y-127094999D01*
X131064000Y-127127000D02*
X131064000Y-127000000D01*
X121055300Y-126976000D02*
X121771800Y-127692500D01*
X131064000Y-127000000D02*
X131064000Y-125984000D01*
X103124000Y-124460000D02*
X107696000Y-124460000D01*
X128575000Y-128270000D02*
X127399700Y-128270000D01*
X125603000Y-128660000D02*
X127009700Y-128660000D01*
X127009700Y-128660000D02*
X127399700Y-128270000D01*
X109582079Y-128993979D02*
X117640021Y-128993979D01*
X108965400Y-128377300D02*
X109582079Y-128993979D01*
X108965400Y-125729400D02*
X108965400Y-128377300D01*
X107696000Y-124460000D02*
X108965400Y-125729400D01*
X118430000Y-128204000D02*
X118430000Y-126976000D01*
X117640021Y-128993979D02*
X118430000Y-128204000D01*
X125594000Y-128651000D02*
X125603000Y-128660000D01*
X119996500Y-128651000D02*
X125594000Y-128651000D01*
X119380000Y-128034500D02*
X119996500Y-128651000D01*
X118975000Y-126976000D02*
X119380000Y-127381000D01*
X119380000Y-127381000D02*
X119380000Y-128034500D01*
X118430000Y-126976000D02*
X118975000Y-126976000D01*
X116536200Y-125521400D02*
X116863100Y-125521400D01*
X114827600Y-127230000D02*
X116536200Y-125521400D01*
X114234000Y-127230000D02*
X114827600Y-127230000D01*
X134992919Y-123190000D02*
X136195000Y-123190000D01*
X133223000Y-123190000D02*
X134992919Y-123190000D01*
X131953000Y-124460000D02*
X133223000Y-123190000D01*
X125056800Y-124460000D02*
X131953000Y-124460000D01*
X124504000Y-125012800D02*
X125056800Y-124460000D01*
X114140100Y-125423900D02*
X112334000Y-127230000D01*
X117195600Y-124796100D02*
X116562700Y-124796100D01*
X112334000Y-127230000D02*
X112268000Y-127230000D01*
X115935000Y-125423800D02*
X115935000Y-125423900D01*
X116562700Y-124796100D02*
X115935000Y-125423800D01*
X118582700Y-122911800D02*
X118582700Y-123409000D01*
X118582700Y-123409000D02*
X117195600Y-124796100D01*
X123674700Y-122268700D02*
X119225800Y-122268700D01*
X119225800Y-122268700D02*
X118582700Y-122911800D01*
X115935000Y-125423900D02*
X114140100Y-125423900D01*
X124723000Y-123317000D02*
X123674700Y-122268700D01*
X130556000Y-123190000D02*
X131115000Y-123190000D01*
X129331210Y-121965210D02*
X130556000Y-123190000D01*
X126074790Y-121965210D02*
X129331210Y-121965210D01*
X124723000Y-123317000D02*
X126074790Y-121965210D01*
X118619215Y-129081900D02*
X118257125Y-129443990D01*
X101300990Y-129443990D02*
X99441000Y-127584000D01*
X119184900Y-129081900D02*
X118619215Y-129081900D01*
X118257125Y-129443990D02*
X101300990Y-129443990D01*
X99441000Y-127584000D02*
X99441000Y-127009000D01*
X98741000Y-127009000D02*
X99441000Y-127009000D01*
X97926000Y-127009000D02*
X98741000Y-127009000D01*
X97282000Y-126365000D02*
X97926000Y-127009000D01*
X97282000Y-125730000D02*
X97282000Y-126365000D01*
X115556600Y-122954600D02*
X116332000Y-123730000D01*
X110236000Y-122954600D02*
X115556600Y-122954600D01*
X110236000Y-123730000D02*
X110236000Y-122954600D01*
X93590000Y-125730000D02*
X90932000Y-125730000D01*
X94996000Y-125730000D02*
X93590000Y-125730000D01*
X96774000Y-123952000D02*
X94996000Y-125730000D01*
X99060000Y-123952000D02*
X96774000Y-123952000D01*
X99441000Y-123952000D02*
X99060000Y-123952000D01*
X99441000Y-124841000D02*
X99441000Y-123952000D01*
X110236000Y-122936000D02*
X110236000Y-123730000D01*
X100838000Y-122936000D02*
X110236000Y-122936000D01*
X99822000Y-123952000D02*
X100838000Y-122936000D01*
X99060000Y-123952000D02*
X99822000Y-123952000D01*
X119380000Y-123976000D02*
X119380000Y-125251300D01*
X119380000Y-125251300D02*
X118335100Y-125251300D01*
X118335100Y-125251300D02*
X116332000Y-127254400D01*
X116332000Y-127254400D02*
X116332000Y-127730000D01*
X113284000Y-124230000D02*
X112558700Y-124230000D01*
X112558700Y-124230000D02*
X110236000Y-126552700D01*
X110236000Y-126552700D02*
X110236000Y-127730000D01*
X138176000Y-128270000D02*
X135636000Y-125730000D01*
X135636000Y-125730000D02*
X133655000Y-125730000D01*
X138735000Y-128270000D02*
X138176000Y-128270000D01*
X129150000Y-125984000D02*
X127127000Y-125984000D01*
X126501000Y-126610000D02*
X125603000Y-126610000D01*
X127127000Y-125984000D02*
X126501000Y-126610000D01*
X130119010Y-124958990D02*
X129150000Y-125928000D01*
X132883990Y-124958990D02*
X130119010Y-124958990D01*
X129150000Y-125928000D02*
X129150000Y-125984000D01*
X133655000Y-125730000D02*
X132883990Y-124958990D01*
X122673000Y-126610000D02*
X125603000Y-126610000D01*
X122673000Y-123317000D02*
X122673000Y-126610000D01*
M02*
