G04 #@! TF.GenerationSoftware,KiCad,Pcbnew,(5.1.5-0-10_14)*
G04 #@! TF.CreationDate,2021-09-17T07:52:49+02:00*
G04 #@! TF.ProjectId,Fluke 9010a Probe,466c756b-6520-4393-9031-30612050726f,1.2*
G04 #@! TF.SameCoordinates,Original*
G04 #@! TF.FileFunction,Legend,Bot*
G04 #@! TF.FilePolarity,Positive*
%FSLAX46Y46*%
G04 Gerber Fmt 4.6, Leading zero omitted, Abs format (unit mm)*
G04 Created by KiCad (PCBNEW (5.1.5-0-10_14)) date 2021-09-17 07:52:49*
%MOMM*%
%LPD*%
G04 APERTURE LIST*
%ADD10C,0.120000*%
%ADD11C,0.100000*%
%ADD12C,0.150000*%
G04 APERTURE END LIST*
D10*
X130436252Y-126694000D02*
X129913748Y-126694000D01*
X130436252Y-125274000D02*
X129913748Y-125274000D01*
X129435000Y-129670000D02*
X129385000Y-129670000D01*
X127305000Y-121920000D02*
X129845000Y-121920000D01*
X127305000Y-129540000D02*
X127305000Y-121920000D01*
X129845000Y-129540000D02*
X127305000Y-129540000D01*
X137465000Y-129540000D02*
X137465000Y-126949200D01*
X129845000Y-129540000D02*
X137465000Y-129540000D01*
X140065000Y-126940000D02*
X140065000Y-121920000D01*
X140005000Y-121920000D02*
X129845000Y-121920000D01*
X127305000Y-129540000D02*
X127305000Y-121920000D01*
X140065000Y-128270000D02*
X140065000Y-126940000D01*
X140065000Y-126940000D02*
X138735000Y-126940000D01*
X109076000Y-128690000D02*
X109076000Y-123480000D01*
X111396000Y-128690000D02*
X109076000Y-128690000D01*
X111396000Y-123480000D02*
X111396000Y-128690000D01*
X117492000Y-122770000D02*
X117492000Y-127980000D01*
X115172000Y-122770000D02*
X117492000Y-122770000D01*
X115172000Y-127980000D02*
X115172000Y-122770000D01*
X100151000Y-126245252D02*
X100151000Y-125722748D01*
X98731000Y-126245252D02*
X98731000Y-125722748D01*
X121972000Y-127896252D02*
X121972000Y-127373748D01*
X123392000Y-127896252D02*
X123392000Y-127373748D01*
X123959252Y-122607000D02*
X123436748Y-122607000D01*
X123959252Y-124027000D02*
X123436748Y-124027000D01*
X117800000Y-124716000D02*
X118730000Y-124716000D01*
X120960000Y-124716000D02*
X120030000Y-124716000D01*
X120960000Y-124716000D02*
X120960000Y-127876000D01*
X117800000Y-124716000D02*
X117800000Y-126176000D01*
X111704000Y-124970000D02*
X111704000Y-126430000D01*
X114864000Y-124970000D02*
X114864000Y-128130000D01*
X114864000Y-124970000D02*
X113934000Y-124970000D01*
X111704000Y-124970000D02*
X112634000Y-124970000D01*
X97266000Y-126690000D02*
X94406000Y-126690000D01*
X94406000Y-126690000D02*
X94406000Y-124770000D01*
X94406000Y-124770000D02*
X97266000Y-124770000D01*
X124643000Y-129495000D02*
X124643000Y-126635000D01*
X126563000Y-129495000D02*
X124643000Y-129495000D01*
X126563000Y-126635000D02*
X126563000Y-129495000D01*
D11*
X128174714Y-125850666D02*
X128212809Y-125812571D01*
X128250904Y-125698285D01*
X128250904Y-125622095D01*
X128212809Y-125507809D01*
X128136619Y-125431619D01*
X128060428Y-125393523D01*
X127908047Y-125355428D01*
X127793761Y-125355428D01*
X127641380Y-125393523D01*
X127565190Y-125431619D01*
X127489000Y-125507809D01*
X127450904Y-125622095D01*
X127450904Y-125698285D01*
X127489000Y-125812571D01*
X127527095Y-125850666D01*
X127717571Y-126536380D02*
X128250904Y-126536380D01*
X127412809Y-126345904D02*
X127984238Y-126155428D01*
X127984238Y-126650666D01*
D12*
X136691666Y-124888714D02*
X136691666Y-125364904D01*
X136977380Y-124793476D02*
X135977380Y-125126809D01*
X136977380Y-125460142D01*
X135977380Y-125698238D02*
X135977380Y-126364904D01*
X136977380Y-125936333D01*
D11*
X110769333Y-122586714D02*
X110807428Y-122624809D01*
X110921714Y-122662904D01*
X110997904Y-122662904D01*
X111112190Y-122624809D01*
X111188380Y-122548619D01*
X111226476Y-122472428D01*
X111264571Y-122320047D01*
X111264571Y-122205761D01*
X111226476Y-122053380D01*
X111188380Y-121977190D01*
X111112190Y-121901000D01*
X110997904Y-121862904D01*
X110921714Y-121862904D01*
X110807428Y-121901000D01*
X110769333Y-121939095D01*
X109969333Y-122662904D02*
X110236000Y-122281952D01*
X110426476Y-122662904D02*
X110426476Y-121862904D01*
X110121714Y-121862904D01*
X110045523Y-121901000D01*
X110007428Y-121939095D01*
X109969333Y-122015285D01*
X109969333Y-122129571D01*
X110007428Y-122205761D01*
X110045523Y-122243857D01*
X110121714Y-122281952D01*
X110426476Y-122281952D01*
X109664571Y-121939095D02*
X109626476Y-121901000D01*
X109550285Y-121862904D01*
X109359809Y-121862904D01*
X109283619Y-121901000D01*
X109245523Y-121939095D01*
X109207428Y-122015285D01*
X109207428Y-122091476D01*
X109245523Y-122205761D01*
X109702666Y-122662904D01*
X109207428Y-122662904D01*
X116865333Y-129571714D02*
X116903428Y-129609809D01*
X117017714Y-129647904D01*
X117093904Y-129647904D01*
X117208190Y-129609809D01*
X117284380Y-129533619D01*
X117322476Y-129457428D01*
X117360571Y-129305047D01*
X117360571Y-129190761D01*
X117322476Y-129038380D01*
X117284380Y-128962190D01*
X117208190Y-128886000D01*
X117093904Y-128847904D01*
X117017714Y-128847904D01*
X116903428Y-128886000D01*
X116865333Y-128924095D01*
X116065333Y-129647904D02*
X116332000Y-129266952D01*
X116522476Y-129647904D02*
X116522476Y-128847904D01*
X116217714Y-128847904D01*
X116141523Y-128886000D01*
X116103428Y-128924095D01*
X116065333Y-129000285D01*
X116065333Y-129114571D01*
X116103428Y-129190761D01*
X116141523Y-129228857D01*
X116217714Y-129266952D01*
X116522476Y-129266952D01*
X115303428Y-129647904D02*
X115760571Y-129647904D01*
X115532000Y-129647904D02*
X115532000Y-128847904D01*
X115608190Y-128962190D01*
X115684380Y-129038380D01*
X115760571Y-129076476D01*
D12*
X100733857Y-126150666D02*
X100686238Y-126198285D01*
X100638619Y-126341142D01*
X100638619Y-126436380D01*
X100686238Y-126579238D01*
X100781476Y-126674476D01*
X100876714Y-126722095D01*
X101067190Y-126769714D01*
X101210047Y-126769714D01*
X101400523Y-126722095D01*
X101495761Y-126674476D01*
X101591000Y-126579238D01*
X101638619Y-126436380D01*
X101638619Y-126341142D01*
X101591000Y-126198285D01*
X101543380Y-126150666D01*
X100638619Y-125198285D02*
X100638619Y-125769714D01*
X100638619Y-125484000D02*
X101638619Y-125484000D01*
X101495761Y-125579238D01*
X101400523Y-125674476D01*
X101352904Y-125769714D01*
X122848666Y-125570142D02*
X122896285Y-125617761D01*
X123039142Y-125665380D01*
X123134380Y-125665380D01*
X123277238Y-125617761D01*
X123372476Y-125522523D01*
X123420095Y-125427285D01*
X123467714Y-125236809D01*
X123467714Y-125093952D01*
X123420095Y-124903476D01*
X123372476Y-124808238D01*
X123277238Y-124713000D01*
X123134380Y-124665380D01*
X123039142Y-124665380D01*
X122896285Y-124713000D01*
X122848666Y-124760619D01*
X122467714Y-124760619D02*
X122420095Y-124713000D01*
X122324857Y-124665380D01*
X122086761Y-124665380D01*
X121991523Y-124713000D01*
X121943904Y-124760619D01*
X121896285Y-124855857D01*
X121896285Y-124951095D01*
X121943904Y-125093952D01*
X122515333Y-125665380D01*
X121896285Y-125665380D01*
X126858142Y-123150333D02*
X126905761Y-123102714D01*
X126953380Y-122959857D01*
X126953380Y-122864619D01*
X126905761Y-122721761D01*
X126810523Y-122626523D01*
X126715285Y-122578904D01*
X126524809Y-122531285D01*
X126381952Y-122531285D01*
X126191476Y-122578904D01*
X126096238Y-122626523D01*
X126001000Y-122721761D01*
X125953380Y-122864619D01*
X125953380Y-122959857D01*
X126001000Y-123102714D01*
X126048619Y-123150333D01*
X125953380Y-123483666D02*
X125953380Y-124102714D01*
X126334333Y-123769380D01*
X126334333Y-123912238D01*
X126381952Y-124007476D01*
X126429571Y-124055095D01*
X126524809Y-124102714D01*
X126762904Y-124102714D01*
X126858142Y-124055095D01*
X126905761Y-124007476D01*
X126953380Y-123912238D01*
X126953380Y-123626523D01*
X126905761Y-123531285D01*
X126858142Y-123483666D01*
D11*
X119202190Y-122612095D02*
X119278380Y-122574000D01*
X119354571Y-122497809D01*
X119468857Y-122383523D01*
X119545047Y-122345428D01*
X119621238Y-122345428D01*
X119583142Y-122535904D02*
X119659333Y-122497809D01*
X119735523Y-122421619D01*
X119773619Y-122269238D01*
X119773619Y-122002571D01*
X119735523Y-121850190D01*
X119659333Y-121774000D01*
X119583142Y-121735904D01*
X119430761Y-121735904D01*
X119354571Y-121774000D01*
X119278380Y-121850190D01*
X119240285Y-122002571D01*
X119240285Y-122269238D01*
X119278380Y-122421619D01*
X119354571Y-122497809D01*
X119430761Y-122535904D01*
X119583142Y-122535904D01*
X118478380Y-122535904D02*
X118935523Y-122535904D01*
X118706952Y-122535904D02*
X118706952Y-121735904D01*
X118783142Y-121850190D01*
X118859333Y-121926380D01*
X118935523Y-121964476D01*
X113360190Y-122866095D02*
X113436380Y-122828000D01*
X113512571Y-122751809D01*
X113626857Y-122637523D01*
X113703047Y-122599428D01*
X113779238Y-122599428D01*
X113741142Y-122789904D02*
X113817333Y-122751809D01*
X113893523Y-122675619D01*
X113931619Y-122523238D01*
X113931619Y-122256571D01*
X113893523Y-122104190D01*
X113817333Y-122028000D01*
X113741142Y-121989904D01*
X113588761Y-121989904D01*
X113512571Y-122028000D01*
X113436380Y-122104190D01*
X113398285Y-122256571D01*
X113398285Y-122523238D01*
X113436380Y-122675619D01*
X113512571Y-122751809D01*
X113588761Y-122789904D01*
X113741142Y-122789904D01*
X113093523Y-122066095D02*
X113055428Y-122028000D01*
X112979238Y-121989904D01*
X112788761Y-121989904D01*
X112712571Y-122028000D01*
X112674476Y-122066095D01*
X112636380Y-122142285D01*
X112636380Y-122218476D01*
X112674476Y-122332761D01*
X113131619Y-122789904D01*
X112636380Y-122789904D01*
D12*
X96432666Y-127960380D02*
X96766000Y-127484190D01*
X97004095Y-127960380D02*
X97004095Y-126960380D01*
X96623142Y-126960380D01*
X96527904Y-127008000D01*
X96480285Y-127055619D01*
X96432666Y-127150857D01*
X96432666Y-127293714D01*
X96480285Y-127388952D01*
X96527904Y-127436571D01*
X96623142Y-127484190D01*
X97004095Y-127484190D01*
X96099333Y-126960380D02*
X95480285Y-126960380D01*
X95813619Y-127341333D01*
X95670761Y-127341333D01*
X95575523Y-127388952D01*
X95527904Y-127436571D01*
X95480285Y-127531809D01*
X95480285Y-127769904D01*
X95527904Y-127865142D01*
X95575523Y-127912761D01*
X95670761Y-127960380D01*
X95956476Y-127960380D01*
X96051714Y-127912761D01*
X96099333Y-127865142D01*
X125769666Y-125674380D02*
X126103000Y-125198190D01*
X126341095Y-125674380D02*
X126341095Y-124674380D01*
X125960142Y-124674380D01*
X125864904Y-124722000D01*
X125817285Y-124769619D01*
X125769666Y-124864857D01*
X125769666Y-125007714D01*
X125817285Y-125102952D01*
X125864904Y-125150571D01*
X125960142Y-125198190D01*
X126341095Y-125198190D01*
X124912523Y-125007714D02*
X124912523Y-125674380D01*
X125150619Y-124626761D02*
X125388714Y-125341047D01*
X124769666Y-125341047D01*
M02*
