G04 #@! TF.GenerationSoftware,KiCad,Pcbnew,(5.1.5-0-10_14)*
G04 #@! TF.CreationDate,2021-09-17T07:52:49+02:00*
G04 #@! TF.ProjectId,Fluke 9010a Probe,466c756b-6520-4393-9031-30612050726f,1.2*
G04 #@! TF.SameCoordinates,Original*
G04 #@! TF.FileFunction,Paste,Top*
G04 #@! TF.FilePolarity,Positive*
%FSLAX46Y46*%
G04 Gerber Fmt 4.6, Leading zero omitted, Abs format (unit mm)*
G04 Created by KiCad (PCBNEW (5.1.5-0-10_14)) date 2021-09-17 07:52:49*
%MOMM*%
%LPD*%
G04 APERTURE LIST*
%ADD10C,0.100000*%
G04 APERTURE END LIST*
D10*
G36*
X122895505Y-122618204D02*
G01*
X122919773Y-122621804D01*
X122943572Y-122627765D01*
X122966671Y-122636030D01*
X122988850Y-122646520D01*
X123009893Y-122659132D01*
X123029599Y-122673747D01*
X123047777Y-122690223D01*
X123064253Y-122708401D01*
X123078868Y-122728107D01*
X123091480Y-122749150D01*
X123101970Y-122771329D01*
X123110235Y-122794428D01*
X123116196Y-122818227D01*
X123119796Y-122842495D01*
X123121000Y-122866999D01*
X123121000Y-123767001D01*
X123119796Y-123791505D01*
X123116196Y-123815773D01*
X123110235Y-123839572D01*
X123101970Y-123862671D01*
X123091480Y-123884850D01*
X123078868Y-123905893D01*
X123064253Y-123925599D01*
X123047777Y-123943777D01*
X123029599Y-123960253D01*
X123009893Y-123974868D01*
X122988850Y-123987480D01*
X122966671Y-123997970D01*
X122943572Y-124006235D01*
X122919773Y-124012196D01*
X122895505Y-124015796D01*
X122871001Y-124017000D01*
X122220999Y-124017000D01*
X122196495Y-124015796D01*
X122172227Y-124012196D01*
X122148428Y-124006235D01*
X122125329Y-123997970D01*
X122103150Y-123987480D01*
X122082107Y-123974868D01*
X122062401Y-123960253D01*
X122044223Y-123943777D01*
X122027747Y-123925599D01*
X122013132Y-123905893D01*
X122000520Y-123884850D01*
X121990030Y-123862671D01*
X121981765Y-123839572D01*
X121975804Y-123815773D01*
X121972204Y-123791505D01*
X121971000Y-123767001D01*
X121971000Y-122866999D01*
X121972204Y-122842495D01*
X121975804Y-122818227D01*
X121981765Y-122794428D01*
X121990030Y-122771329D01*
X122000520Y-122749150D01*
X122013132Y-122728107D01*
X122027747Y-122708401D01*
X122044223Y-122690223D01*
X122062401Y-122673747D01*
X122082107Y-122659132D01*
X122103150Y-122646520D01*
X122125329Y-122636030D01*
X122148428Y-122627765D01*
X122172227Y-122621804D01*
X122196495Y-122618204D01*
X122220999Y-122617000D01*
X122871001Y-122617000D01*
X122895505Y-122618204D01*
G37*
G36*
X124945505Y-122618204D02*
G01*
X124969773Y-122621804D01*
X124993572Y-122627765D01*
X125016671Y-122636030D01*
X125038850Y-122646520D01*
X125059893Y-122659132D01*
X125079599Y-122673747D01*
X125097777Y-122690223D01*
X125114253Y-122708401D01*
X125128868Y-122728107D01*
X125141480Y-122749150D01*
X125151970Y-122771329D01*
X125160235Y-122794428D01*
X125166196Y-122818227D01*
X125169796Y-122842495D01*
X125171000Y-122866999D01*
X125171000Y-123767001D01*
X125169796Y-123791505D01*
X125166196Y-123815773D01*
X125160235Y-123839572D01*
X125151970Y-123862671D01*
X125141480Y-123884850D01*
X125128868Y-123905893D01*
X125114253Y-123925599D01*
X125097777Y-123943777D01*
X125079599Y-123960253D01*
X125059893Y-123974868D01*
X125038850Y-123987480D01*
X125016671Y-123997970D01*
X124993572Y-124006235D01*
X124969773Y-124012196D01*
X124945505Y-124015796D01*
X124921001Y-124017000D01*
X124270999Y-124017000D01*
X124246495Y-124015796D01*
X124222227Y-124012196D01*
X124198428Y-124006235D01*
X124175329Y-123997970D01*
X124153150Y-123987480D01*
X124132107Y-123974868D01*
X124112401Y-123960253D01*
X124094223Y-123943777D01*
X124077747Y-123925599D01*
X124063132Y-123905893D01*
X124050520Y-123884850D01*
X124040030Y-123862671D01*
X124031765Y-123839572D01*
X124025804Y-123815773D01*
X124022204Y-123791505D01*
X124021000Y-123767001D01*
X124021000Y-122866999D01*
X124022204Y-122842495D01*
X124025804Y-122818227D01*
X124031765Y-122794428D01*
X124040030Y-122771329D01*
X124050520Y-122749150D01*
X124063132Y-122728107D01*
X124077747Y-122708401D01*
X124094223Y-122690223D01*
X124112401Y-122673747D01*
X124132107Y-122659132D01*
X124153150Y-122646520D01*
X124175329Y-122636030D01*
X124198428Y-122627765D01*
X124222227Y-122621804D01*
X124246495Y-122618204D01*
X124270999Y-122617000D01*
X124921001Y-122617000D01*
X124945505Y-122618204D01*
G37*
G36*
X124818505Y-127190204D02*
G01*
X124842773Y-127193804D01*
X124866572Y-127199765D01*
X124889671Y-127208030D01*
X124911850Y-127218520D01*
X124932893Y-127231132D01*
X124952599Y-127245747D01*
X124970777Y-127262223D01*
X124987253Y-127280401D01*
X125001868Y-127300107D01*
X125014480Y-127321150D01*
X125024970Y-127343329D01*
X125033235Y-127366428D01*
X125039196Y-127390227D01*
X125042796Y-127414495D01*
X125044000Y-127438999D01*
X125044000Y-128339001D01*
X125042796Y-128363505D01*
X125039196Y-128387773D01*
X125033235Y-128411572D01*
X125024970Y-128434671D01*
X125014480Y-128456850D01*
X125001868Y-128477893D01*
X124987253Y-128497599D01*
X124970777Y-128515777D01*
X124952599Y-128532253D01*
X124932893Y-128546868D01*
X124911850Y-128559480D01*
X124889671Y-128569970D01*
X124866572Y-128578235D01*
X124842773Y-128584196D01*
X124818505Y-128587796D01*
X124794001Y-128589000D01*
X124143999Y-128589000D01*
X124119495Y-128587796D01*
X124095227Y-128584196D01*
X124071428Y-128578235D01*
X124048329Y-128569970D01*
X124026150Y-128559480D01*
X124005107Y-128546868D01*
X123985401Y-128532253D01*
X123967223Y-128515777D01*
X123950747Y-128497599D01*
X123936132Y-128477893D01*
X123923520Y-128456850D01*
X123913030Y-128434671D01*
X123904765Y-128411572D01*
X123898804Y-128387773D01*
X123895204Y-128363505D01*
X123894000Y-128339001D01*
X123894000Y-127438999D01*
X123895204Y-127414495D01*
X123898804Y-127390227D01*
X123904765Y-127366428D01*
X123913030Y-127343329D01*
X123923520Y-127321150D01*
X123936132Y-127300107D01*
X123950747Y-127280401D01*
X123967223Y-127262223D01*
X123985401Y-127245747D01*
X124005107Y-127231132D01*
X124026150Y-127218520D01*
X124048329Y-127208030D01*
X124071428Y-127199765D01*
X124095227Y-127193804D01*
X124119495Y-127190204D01*
X124143999Y-127189000D01*
X124794001Y-127189000D01*
X124818505Y-127190204D01*
G37*
G36*
X122768505Y-127190204D02*
G01*
X122792773Y-127193804D01*
X122816572Y-127199765D01*
X122839671Y-127208030D01*
X122861850Y-127218520D01*
X122882893Y-127231132D01*
X122902599Y-127245747D01*
X122920777Y-127262223D01*
X122937253Y-127280401D01*
X122951868Y-127300107D01*
X122964480Y-127321150D01*
X122974970Y-127343329D01*
X122983235Y-127366428D01*
X122989196Y-127390227D01*
X122992796Y-127414495D01*
X122994000Y-127438999D01*
X122994000Y-128339001D01*
X122992796Y-128363505D01*
X122989196Y-128387773D01*
X122983235Y-128411572D01*
X122974970Y-128434671D01*
X122964480Y-128456850D01*
X122951868Y-128477893D01*
X122937253Y-128497599D01*
X122920777Y-128515777D01*
X122902599Y-128532253D01*
X122882893Y-128546868D01*
X122861850Y-128559480D01*
X122839671Y-128569970D01*
X122816572Y-128578235D01*
X122792773Y-128584196D01*
X122768505Y-128587796D01*
X122744001Y-128589000D01*
X122093999Y-128589000D01*
X122069495Y-128587796D01*
X122045227Y-128584196D01*
X122021428Y-128578235D01*
X121998329Y-128569970D01*
X121976150Y-128559480D01*
X121955107Y-128546868D01*
X121935401Y-128532253D01*
X121917223Y-128515777D01*
X121900747Y-128497599D01*
X121886132Y-128477893D01*
X121873520Y-128456850D01*
X121863030Y-128434671D01*
X121854765Y-128411572D01*
X121848804Y-128387773D01*
X121845204Y-128363505D01*
X121844000Y-128339001D01*
X121844000Y-127438999D01*
X121845204Y-127414495D01*
X121848804Y-127390227D01*
X121854765Y-127366428D01*
X121863030Y-127343329D01*
X121873520Y-127321150D01*
X121886132Y-127300107D01*
X121900747Y-127280401D01*
X121917223Y-127262223D01*
X121935401Y-127245747D01*
X121955107Y-127231132D01*
X121976150Y-127218520D01*
X121998329Y-127208030D01*
X122021428Y-127199765D01*
X122045227Y-127193804D01*
X122069495Y-127190204D01*
X122093999Y-127189000D01*
X122744001Y-127189000D01*
X122768505Y-127190204D01*
G37*
G36*
X112989505Y-122491204D02*
G01*
X113013773Y-122494804D01*
X113037572Y-122500765D01*
X113060671Y-122509030D01*
X113082850Y-122519520D01*
X113103893Y-122532132D01*
X113123599Y-122546747D01*
X113141777Y-122563223D01*
X113158253Y-122581401D01*
X113172868Y-122601107D01*
X113185480Y-122622150D01*
X113195970Y-122644329D01*
X113204235Y-122667428D01*
X113210196Y-122691227D01*
X113213796Y-122715495D01*
X113215000Y-122739999D01*
X113215000Y-123640001D01*
X113213796Y-123664505D01*
X113210196Y-123688773D01*
X113204235Y-123712572D01*
X113195970Y-123735671D01*
X113185480Y-123757850D01*
X113172868Y-123778893D01*
X113158253Y-123798599D01*
X113141777Y-123816777D01*
X113123599Y-123833253D01*
X113103893Y-123847868D01*
X113082850Y-123860480D01*
X113060671Y-123870970D01*
X113037572Y-123879235D01*
X113013773Y-123885196D01*
X112989505Y-123888796D01*
X112965001Y-123890000D01*
X112314999Y-123890000D01*
X112290495Y-123888796D01*
X112266227Y-123885196D01*
X112242428Y-123879235D01*
X112219329Y-123870970D01*
X112197150Y-123860480D01*
X112176107Y-123847868D01*
X112156401Y-123833253D01*
X112138223Y-123816777D01*
X112121747Y-123798599D01*
X112107132Y-123778893D01*
X112094520Y-123757850D01*
X112084030Y-123735671D01*
X112075765Y-123712572D01*
X112069804Y-123688773D01*
X112066204Y-123664505D01*
X112065000Y-123640001D01*
X112065000Y-122739999D01*
X112066204Y-122715495D01*
X112069804Y-122691227D01*
X112075765Y-122667428D01*
X112084030Y-122644329D01*
X112094520Y-122622150D01*
X112107132Y-122601107D01*
X112121747Y-122581401D01*
X112138223Y-122563223D01*
X112156401Y-122546747D01*
X112176107Y-122532132D01*
X112197150Y-122519520D01*
X112219329Y-122509030D01*
X112242428Y-122500765D01*
X112266227Y-122494804D01*
X112290495Y-122491204D01*
X112314999Y-122490000D01*
X112965001Y-122490000D01*
X112989505Y-122491204D01*
G37*
G36*
X115039505Y-122491204D02*
G01*
X115063773Y-122494804D01*
X115087572Y-122500765D01*
X115110671Y-122509030D01*
X115132850Y-122519520D01*
X115153893Y-122532132D01*
X115173599Y-122546747D01*
X115191777Y-122563223D01*
X115208253Y-122581401D01*
X115222868Y-122601107D01*
X115235480Y-122622150D01*
X115245970Y-122644329D01*
X115254235Y-122667428D01*
X115260196Y-122691227D01*
X115263796Y-122715495D01*
X115265000Y-122739999D01*
X115265000Y-123640001D01*
X115263796Y-123664505D01*
X115260196Y-123688773D01*
X115254235Y-123712572D01*
X115245970Y-123735671D01*
X115235480Y-123757850D01*
X115222868Y-123778893D01*
X115208253Y-123798599D01*
X115191777Y-123816777D01*
X115173599Y-123833253D01*
X115153893Y-123847868D01*
X115132850Y-123860480D01*
X115110671Y-123870970D01*
X115087572Y-123879235D01*
X115063773Y-123885196D01*
X115039505Y-123888796D01*
X115015001Y-123890000D01*
X114364999Y-123890000D01*
X114340495Y-123888796D01*
X114316227Y-123885196D01*
X114292428Y-123879235D01*
X114269329Y-123870970D01*
X114247150Y-123860480D01*
X114226107Y-123847868D01*
X114206401Y-123833253D01*
X114188223Y-123816777D01*
X114171747Y-123798599D01*
X114157132Y-123778893D01*
X114144520Y-123757850D01*
X114134030Y-123735671D01*
X114125765Y-123712572D01*
X114119804Y-123688773D01*
X114116204Y-123664505D01*
X114115000Y-123640001D01*
X114115000Y-122739999D01*
X114116204Y-122715495D01*
X114119804Y-122691227D01*
X114125765Y-122667428D01*
X114134030Y-122644329D01*
X114144520Y-122622150D01*
X114157132Y-122601107D01*
X114171747Y-122581401D01*
X114188223Y-122563223D01*
X114206401Y-122546747D01*
X114226107Y-122532132D01*
X114247150Y-122519520D01*
X114269329Y-122509030D01*
X114292428Y-122500765D01*
X114316227Y-122494804D01*
X114340495Y-122491204D01*
X114364999Y-122490000D01*
X115015001Y-122490000D01*
X115039505Y-122491204D01*
G37*
G36*
X112989505Y-127571204D02*
G01*
X113013773Y-127574804D01*
X113037572Y-127580765D01*
X113060671Y-127589030D01*
X113082850Y-127599520D01*
X113103893Y-127612132D01*
X113123599Y-127626747D01*
X113141777Y-127643223D01*
X113158253Y-127661401D01*
X113172868Y-127681107D01*
X113185480Y-127702150D01*
X113195970Y-127724329D01*
X113204235Y-127747428D01*
X113210196Y-127771227D01*
X113213796Y-127795495D01*
X113215000Y-127819999D01*
X113215000Y-128720001D01*
X113213796Y-128744505D01*
X113210196Y-128768773D01*
X113204235Y-128792572D01*
X113195970Y-128815671D01*
X113185480Y-128837850D01*
X113172868Y-128858893D01*
X113158253Y-128878599D01*
X113141777Y-128896777D01*
X113123599Y-128913253D01*
X113103893Y-128927868D01*
X113082850Y-128940480D01*
X113060671Y-128950970D01*
X113037572Y-128959235D01*
X113013773Y-128965196D01*
X112989505Y-128968796D01*
X112965001Y-128970000D01*
X112314999Y-128970000D01*
X112290495Y-128968796D01*
X112266227Y-128965196D01*
X112242428Y-128959235D01*
X112219329Y-128950970D01*
X112197150Y-128940480D01*
X112176107Y-128927868D01*
X112156401Y-128913253D01*
X112138223Y-128896777D01*
X112121747Y-128878599D01*
X112107132Y-128858893D01*
X112094520Y-128837850D01*
X112084030Y-128815671D01*
X112075765Y-128792572D01*
X112069804Y-128768773D01*
X112066204Y-128744505D01*
X112065000Y-128720001D01*
X112065000Y-127819999D01*
X112066204Y-127795495D01*
X112069804Y-127771227D01*
X112075765Y-127747428D01*
X112084030Y-127724329D01*
X112094520Y-127702150D01*
X112107132Y-127681107D01*
X112121747Y-127661401D01*
X112138223Y-127643223D01*
X112156401Y-127626747D01*
X112176107Y-127612132D01*
X112197150Y-127599520D01*
X112219329Y-127589030D01*
X112242428Y-127580765D01*
X112266227Y-127574804D01*
X112290495Y-127571204D01*
X112314999Y-127570000D01*
X112965001Y-127570000D01*
X112989505Y-127571204D01*
G37*
G36*
X115039505Y-127571204D02*
G01*
X115063773Y-127574804D01*
X115087572Y-127580765D01*
X115110671Y-127589030D01*
X115132850Y-127599520D01*
X115153893Y-127612132D01*
X115173599Y-127626747D01*
X115191777Y-127643223D01*
X115208253Y-127661401D01*
X115222868Y-127681107D01*
X115235480Y-127702150D01*
X115245970Y-127724329D01*
X115254235Y-127747428D01*
X115260196Y-127771227D01*
X115263796Y-127795495D01*
X115265000Y-127819999D01*
X115265000Y-128720001D01*
X115263796Y-128744505D01*
X115260196Y-128768773D01*
X115254235Y-128792572D01*
X115245970Y-128815671D01*
X115235480Y-128837850D01*
X115222868Y-128858893D01*
X115208253Y-128878599D01*
X115191777Y-128896777D01*
X115173599Y-128913253D01*
X115153893Y-128927868D01*
X115132850Y-128940480D01*
X115110671Y-128950970D01*
X115087572Y-128959235D01*
X115063773Y-128965196D01*
X115039505Y-128968796D01*
X115015001Y-128970000D01*
X114364999Y-128970000D01*
X114340495Y-128968796D01*
X114316227Y-128965196D01*
X114292428Y-128959235D01*
X114269329Y-128950970D01*
X114247150Y-128940480D01*
X114226107Y-128927868D01*
X114206401Y-128913253D01*
X114188223Y-128896777D01*
X114171747Y-128878599D01*
X114157132Y-128858893D01*
X114144520Y-128837850D01*
X114134030Y-128815671D01*
X114125765Y-128792572D01*
X114119804Y-128768773D01*
X114116204Y-128744505D01*
X114115000Y-128720001D01*
X114115000Y-127819999D01*
X114116204Y-127795495D01*
X114119804Y-127771227D01*
X114125765Y-127747428D01*
X114134030Y-127724329D01*
X114144520Y-127702150D01*
X114157132Y-127681107D01*
X114171747Y-127661401D01*
X114188223Y-127643223D01*
X114206401Y-127626747D01*
X114226107Y-127612132D01*
X114247150Y-127599520D01*
X114269329Y-127589030D01*
X114292428Y-127580765D01*
X114316227Y-127574804D01*
X114340495Y-127571204D01*
X114364999Y-127570000D01*
X115015001Y-127570000D01*
X115039505Y-127571204D01*
G37*
M02*
