G04 #@! TF.GenerationSoftware,KiCad,Pcbnew,(5.1.5-0-10_14)*
G04 #@! TF.CreationDate,2021-09-17T07:52:49+02:00*
G04 #@! TF.ProjectId,Fluke 9010a Probe,466c756b-6520-4393-9031-30612050726f,1.2*
G04 #@! TF.SameCoordinates,Original*
G04 #@! TF.FileFunction,Legend,Top*
G04 #@! TF.FilePolarity,Positive*
%FSLAX46Y46*%
G04 Gerber Fmt 4.6, Leading zero omitted, Abs format (unit mm)*
G04 Created by KiCad (PCBNEW (5.1.5-0-10_14)) date 2021-09-17 07:52:49*
%MOMM*%
%LPD*%
G04 APERTURE LIST*
%ADD10C,0.100000*%
%ADD11C,0.010000*%
%ADD12C,0.120000*%
%ADD13C,0.150000*%
G04 APERTURE END LIST*
D10*
X97663142Y-128733571D02*
X97853619Y-129266904D01*
X98044095Y-128733571D01*
X98767904Y-129266904D02*
X98310761Y-129266904D01*
X98539333Y-129266904D02*
X98539333Y-128466904D01*
X98463142Y-128581190D01*
X98386952Y-128657380D01*
X98310761Y-128695476D01*
X99110761Y-129190714D02*
X99148857Y-129228809D01*
X99110761Y-129266904D01*
X99072666Y-129228809D01*
X99110761Y-129190714D01*
X99110761Y-129266904D01*
X99415523Y-128466904D02*
X99910761Y-128466904D01*
X99644095Y-128771666D01*
X99758380Y-128771666D01*
X99834571Y-128809761D01*
X99872666Y-128847857D01*
X99910761Y-128924047D01*
X99910761Y-129114523D01*
X99872666Y-129190714D01*
X99834571Y-129228809D01*
X99758380Y-129266904D01*
X99529809Y-129266904D01*
X99453619Y-129228809D01*
X99415523Y-129190714D01*
X133089714Y-127793714D02*
X133051619Y-127831809D01*
X132937333Y-127869904D01*
X132861142Y-127869904D01*
X132746857Y-127831809D01*
X132670666Y-127755619D01*
X132632571Y-127679428D01*
X132594476Y-127527047D01*
X132594476Y-127412761D01*
X132632571Y-127260380D01*
X132670666Y-127184190D01*
X132746857Y-127108000D01*
X132861142Y-127069904D01*
X132937333Y-127069904D01*
X133051619Y-127108000D01*
X133089714Y-127146095D01*
X133546857Y-127869904D02*
X133470666Y-127831809D01*
X133432571Y-127755619D01*
X133432571Y-127069904D01*
X133851619Y-127869904D02*
X133851619Y-127336571D01*
X133851619Y-127069904D02*
X133813523Y-127108000D01*
X133851619Y-127146095D01*
X133889714Y-127108000D01*
X133851619Y-127069904D01*
X133851619Y-127146095D01*
X134232571Y-127336571D02*
X134232571Y-128136571D01*
X134232571Y-127374666D02*
X134308761Y-127336571D01*
X134461142Y-127336571D01*
X134537333Y-127374666D01*
X134575428Y-127412761D01*
X134613523Y-127488952D01*
X134613523Y-127717523D01*
X134575428Y-127793714D01*
X134537333Y-127831809D01*
X134461142Y-127869904D01*
X134308761Y-127869904D01*
X134232571Y-127831809D01*
X132994476Y-123552000D02*
X132918285Y-123513904D01*
X132804000Y-123513904D01*
X132689714Y-123552000D01*
X132613523Y-123628190D01*
X132575428Y-123704380D01*
X132537333Y-123856761D01*
X132537333Y-123971047D01*
X132575428Y-124123428D01*
X132613523Y-124199619D01*
X132689714Y-124275809D01*
X132804000Y-124313904D01*
X132880190Y-124313904D01*
X132994476Y-124275809D01*
X133032571Y-124237714D01*
X133032571Y-123971047D01*
X132880190Y-123971047D01*
X133375428Y-124313904D02*
X133375428Y-123513904D01*
X133832571Y-124313904D01*
X133832571Y-123513904D01*
X134213523Y-124313904D02*
X134213523Y-123513904D01*
X134404000Y-123513904D01*
X134518285Y-123552000D01*
X134594476Y-123628190D01*
X134632571Y-123704380D01*
X134670666Y-123856761D01*
X134670666Y-123971047D01*
X134632571Y-124123428D01*
X134594476Y-124199619D01*
X134518285Y-124275809D01*
X134404000Y-124313904D01*
X134213523Y-124313904D01*
D11*
G36*
X96064972Y-122974113D02*
G01*
X96155727Y-122992207D01*
X96346164Y-123063360D01*
X96623289Y-123182039D01*
X96974109Y-123342711D01*
X97330342Y-123512927D01*
X97723731Y-123703564D01*
X98114932Y-123892329D01*
X98475936Y-124065764D01*
X98778732Y-124210412D01*
X98994845Y-124312599D01*
X99320312Y-124479894D01*
X99570150Y-124639175D01*
X99729095Y-124779381D01*
X99781971Y-124883162D01*
X99730348Y-124869882D01*
X99585304Y-124801161D01*
X99428707Y-124719662D01*
X99439277Y-124701354D01*
X99593567Y-124782227D01*
X99653704Y-124793068D01*
X99614248Y-124735112D01*
X99550215Y-124676164D01*
X99419393Y-124597124D01*
X99332305Y-124577345D01*
X99307367Y-124604269D01*
X99394940Y-124674502D01*
X99439277Y-124701354D01*
X99428707Y-124719662D01*
X99363125Y-124685531D01*
X99080101Y-124531524D01*
X98752519Y-124347672D01*
X98672852Y-124302213D01*
X97896464Y-123873595D01*
X97189567Y-123517617D01*
X96527159Y-123222063D01*
X96176325Y-123082204D01*
X96047967Y-123024608D01*
X96031657Y-122988355D01*
X96064972Y-122974113D01*
G37*
X96064972Y-122974113D02*
X96155727Y-122992207D01*
X96346164Y-123063360D01*
X96623289Y-123182039D01*
X96974109Y-123342711D01*
X97330342Y-123512927D01*
X97723731Y-123703564D01*
X98114932Y-123892329D01*
X98475936Y-124065764D01*
X98778732Y-124210412D01*
X98994845Y-124312599D01*
X99320312Y-124479894D01*
X99570150Y-124639175D01*
X99729095Y-124779381D01*
X99781971Y-124883162D01*
X99730348Y-124869882D01*
X99585304Y-124801161D01*
X99428707Y-124719662D01*
X99439277Y-124701354D01*
X99593567Y-124782227D01*
X99653704Y-124793068D01*
X99614248Y-124735112D01*
X99550215Y-124676164D01*
X99419393Y-124597124D01*
X99332305Y-124577345D01*
X99307367Y-124604269D01*
X99394940Y-124674502D01*
X99439277Y-124701354D01*
X99428707Y-124719662D01*
X99363125Y-124685531D01*
X99080101Y-124531524D01*
X98752519Y-124347672D01*
X98672852Y-124302213D01*
X97896464Y-123873595D01*
X97189567Y-123517617D01*
X96527159Y-123222063D01*
X96176325Y-123082204D01*
X96047967Y-123024608D01*
X96031657Y-122988355D01*
X96064972Y-122974113D01*
G36*
X96968853Y-126013933D02*
G01*
X97138895Y-125872373D01*
X97354901Y-125698505D01*
X97596239Y-125508304D01*
X97842284Y-125317744D01*
X98072406Y-125142799D01*
X98265978Y-124999443D01*
X98402369Y-124903650D01*
X98460954Y-124871395D01*
X98461166Y-124871493D01*
X98478603Y-124940914D01*
X98389698Y-125063091D01*
X98200830Y-125232272D01*
X97918379Y-125442709D01*
X97817613Y-125509910D01*
X97874158Y-125411971D01*
X97917529Y-125400350D01*
X97915590Y-125393113D01*
X97944691Y-125342708D01*
X98106899Y-125253051D01*
X98242273Y-125159964D01*
X98317010Y-125081064D01*
X98342110Y-125022442D01*
X98283378Y-125046821D01*
X98270619Y-125054280D01*
X98152127Y-125142562D01*
X98060508Y-125226267D01*
X97944691Y-125342708D01*
X97915590Y-125393113D01*
X97905908Y-125356978D01*
X97862536Y-125368600D01*
X97874158Y-125411971D01*
X97817613Y-125509910D01*
X97698380Y-125589427D01*
X97755665Y-125490206D01*
X97799036Y-125478585D01*
X97787415Y-125435214D01*
X97744044Y-125446835D01*
X97755665Y-125490206D01*
X97698380Y-125589427D01*
X97568986Y-125675721D01*
X97304366Y-125843701D01*
X97087446Y-125979076D01*
X96935607Y-126071185D01*
X96866226Y-126109369D01*
X96865401Y-126107213D01*
X96968853Y-126013933D01*
G37*
X96968853Y-126013933D02*
X97138895Y-125872373D01*
X97354901Y-125698505D01*
X97596239Y-125508304D01*
X97842284Y-125317744D01*
X98072406Y-125142799D01*
X98265978Y-124999443D01*
X98402369Y-124903650D01*
X98460954Y-124871395D01*
X98461166Y-124871493D01*
X98478603Y-124940914D01*
X98389698Y-125063091D01*
X98200830Y-125232272D01*
X97918379Y-125442709D01*
X97817613Y-125509910D01*
X97874158Y-125411971D01*
X97917529Y-125400350D01*
X97915590Y-125393113D01*
X97944691Y-125342708D01*
X98106899Y-125253051D01*
X98242273Y-125159964D01*
X98317010Y-125081064D01*
X98342110Y-125022442D01*
X98283378Y-125046821D01*
X98270619Y-125054280D01*
X98152127Y-125142562D01*
X98060508Y-125226267D01*
X97944691Y-125342708D01*
X97915590Y-125393113D01*
X97905908Y-125356978D01*
X97862536Y-125368600D01*
X97874158Y-125411971D01*
X97817613Y-125509910D01*
X97698380Y-125589427D01*
X97755665Y-125490206D01*
X97799036Y-125478585D01*
X97787415Y-125435214D01*
X97744044Y-125446835D01*
X97755665Y-125490206D01*
X97698380Y-125589427D01*
X97568986Y-125675721D01*
X97304366Y-125843701D01*
X97087446Y-125979076D01*
X96935607Y-126071185D01*
X96866226Y-126109369D01*
X96865401Y-126107213D01*
X96968853Y-126013933D01*
G36*
X95840027Y-127460297D02*
G01*
X95835008Y-127605558D01*
X95815371Y-127814818D01*
X95785273Y-128057617D01*
X95748872Y-128303501D01*
X95710328Y-128522010D01*
X95673795Y-128682689D01*
X95643434Y-128755080D01*
X95642493Y-128755664D01*
X95615931Y-128789387D01*
X95648873Y-128793377D01*
X95722885Y-128842017D01*
X95732604Y-128882446D01*
X95757623Y-128925550D01*
X95829374Y-128876957D01*
X95950787Y-128732812D01*
X96124796Y-128489257D01*
X96354327Y-128142435D01*
X96642313Y-127688490D01*
X96653911Y-127669936D01*
X96897909Y-127274612D01*
X97075345Y-126975448D01*
X97191063Y-126763575D01*
X97249907Y-126630129D01*
X97256795Y-126566378D01*
X97222597Y-126566258D01*
X97156660Y-126648501D01*
X97052664Y-126823062D01*
X96904283Y-127099893D01*
X96844516Y-127215357D01*
X96704864Y-127482033D01*
X96587262Y-127697546D01*
X96502762Y-127842311D01*
X96462416Y-127896743D01*
X96460706Y-127895471D01*
X96482146Y-127812846D01*
X96554252Y-127648206D01*
X96662475Y-127428520D01*
X96792266Y-127180753D01*
X96929077Y-126931868D01*
X97058361Y-126708834D01*
X97165568Y-126538614D01*
X97236152Y-126448174D01*
X97244952Y-126441845D01*
X97322621Y-126418124D01*
X97352064Y-126454876D01*
X97329984Y-126559689D01*
X97253087Y-126740152D01*
X97118082Y-127003852D01*
X96921674Y-127358376D01*
X96660570Y-127811312D01*
X96621432Y-127878281D01*
X96403605Y-128248327D01*
X96200687Y-128588937D01*
X96023542Y-128882198D01*
X95883032Y-129110201D01*
X95790022Y-129255035D01*
X95765046Y-129290257D01*
X95634110Y-129426491D01*
X95545119Y-129453924D01*
X95530939Y-129423763D01*
X95540210Y-129407704D01*
X95559422Y-129406758D01*
X95630547Y-129333051D01*
X95729452Y-129215534D01*
X95832003Y-129083162D01*
X95914068Y-128964889D01*
X95926902Y-128943764D01*
X95971695Y-128854553D01*
X95947751Y-128862024D01*
X95935176Y-128875217D01*
X95805943Y-129009504D01*
X95732595Y-129056052D01*
X95688917Y-129024018D01*
X95665501Y-128969417D01*
X95635515Y-128904658D01*
X95614839Y-128926925D01*
X95593588Y-129053532D01*
X95586476Y-129107797D01*
X95562642Y-129279924D01*
X95543916Y-129392349D01*
X95540210Y-129407704D01*
X95530939Y-129423763D01*
X95506289Y-129371332D01*
X95505503Y-129328921D01*
X95517566Y-129200563D01*
X95545782Y-128989724D01*
X95585762Y-128722657D01*
X95633120Y-128425614D01*
X95683469Y-128124847D01*
X95732422Y-127846611D01*
X95775589Y-127617158D01*
X95808586Y-127462739D01*
X95826268Y-127409491D01*
X95840027Y-127460297D01*
G37*
X95840027Y-127460297D02*
X95835008Y-127605558D01*
X95815371Y-127814818D01*
X95785273Y-128057617D01*
X95748872Y-128303501D01*
X95710328Y-128522010D01*
X95673795Y-128682689D01*
X95643434Y-128755080D01*
X95642493Y-128755664D01*
X95615931Y-128789387D01*
X95648873Y-128793377D01*
X95722885Y-128842017D01*
X95732604Y-128882446D01*
X95757623Y-128925550D01*
X95829374Y-128876957D01*
X95950787Y-128732812D01*
X96124796Y-128489257D01*
X96354327Y-128142435D01*
X96642313Y-127688490D01*
X96653911Y-127669936D01*
X96897909Y-127274612D01*
X97075345Y-126975448D01*
X97191063Y-126763575D01*
X97249907Y-126630129D01*
X97256795Y-126566378D01*
X97222597Y-126566258D01*
X97156660Y-126648501D01*
X97052664Y-126823062D01*
X96904283Y-127099893D01*
X96844516Y-127215357D01*
X96704864Y-127482033D01*
X96587262Y-127697546D01*
X96502762Y-127842311D01*
X96462416Y-127896743D01*
X96460706Y-127895471D01*
X96482146Y-127812846D01*
X96554252Y-127648206D01*
X96662475Y-127428520D01*
X96792266Y-127180753D01*
X96929077Y-126931868D01*
X97058361Y-126708834D01*
X97165568Y-126538614D01*
X97236152Y-126448174D01*
X97244952Y-126441845D01*
X97322621Y-126418124D01*
X97352064Y-126454876D01*
X97329984Y-126559689D01*
X97253087Y-126740152D01*
X97118082Y-127003852D01*
X96921674Y-127358376D01*
X96660570Y-127811312D01*
X96621432Y-127878281D01*
X96403605Y-128248327D01*
X96200687Y-128588937D01*
X96023542Y-128882198D01*
X95883032Y-129110201D01*
X95790022Y-129255035D01*
X95765046Y-129290257D01*
X95634110Y-129426491D01*
X95545119Y-129453924D01*
X95530939Y-129423763D01*
X95540210Y-129407704D01*
X95559422Y-129406758D01*
X95630547Y-129333051D01*
X95729452Y-129215534D01*
X95832003Y-129083162D01*
X95914068Y-128964889D01*
X95926902Y-128943764D01*
X95971695Y-128854553D01*
X95947751Y-128862024D01*
X95935176Y-128875217D01*
X95805943Y-129009504D01*
X95732595Y-129056052D01*
X95688917Y-129024018D01*
X95665501Y-128969417D01*
X95635515Y-128904658D01*
X95614839Y-128926925D01*
X95593588Y-129053532D01*
X95586476Y-129107797D01*
X95562642Y-129279924D01*
X95543916Y-129392349D01*
X95540210Y-129407704D01*
X95530939Y-129423763D01*
X95506289Y-129371332D01*
X95505503Y-129328921D01*
X95517566Y-129200563D01*
X95545782Y-128989724D01*
X95585762Y-128722657D01*
X95633120Y-128425614D01*
X95683469Y-128124847D01*
X95732422Y-127846611D01*
X95775589Y-127617158D01*
X95808586Y-127462739D01*
X95826268Y-127409491D01*
X95840027Y-127460297D01*
G36*
X98757209Y-121915689D02*
G01*
X98857606Y-122026692D01*
X98956613Y-122153878D01*
X99133208Y-122429124D01*
X99225631Y-122662797D01*
X99233574Y-122842081D01*
X99156731Y-122954156D01*
X98994792Y-122986201D01*
X98976515Y-122984767D01*
X98825259Y-122940411D01*
X98860779Y-122878888D01*
X98932207Y-122919344D01*
X98911861Y-122884736D01*
X98911728Y-122884596D01*
X98865154Y-122776672D01*
X98876916Y-122722643D01*
X98884396Y-122632933D01*
X98863187Y-122610107D01*
X98792543Y-122608360D01*
X98767183Y-122681216D01*
X98787504Y-122784477D01*
X98853901Y-122873947D01*
X98860779Y-122878888D01*
X98825259Y-122940411D01*
X98808880Y-122935607D01*
X98739000Y-122856406D01*
X98715837Y-122721182D01*
X98768477Y-122610482D01*
X98870514Y-122568491D01*
X98906674Y-122575850D01*
X98976759Y-122642566D01*
X98967362Y-122692986D01*
X98968309Y-122797503D01*
X99010998Y-122861904D01*
X99086395Y-122907843D01*
X99121112Y-122842376D01*
X99123482Y-122653226D01*
X99051736Y-122446499D01*
X98894641Y-122189953D01*
X98892838Y-122187368D01*
X98769616Y-121998764D01*
X98726143Y-121907292D01*
X98757209Y-121915689D01*
G37*
X98757209Y-121915689D02*
X98857606Y-122026692D01*
X98956613Y-122153878D01*
X99133208Y-122429124D01*
X99225631Y-122662797D01*
X99233574Y-122842081D01*
X99156731Y-122954156D01*
X98994792Y-122986201D01*
X98976515Y-122984767D01*
X98825259Y-122940411D01*
X98860779Y-122878888D01*
X98932207Y-122919344D01*
X98911861Y-122884736D01*
X98911728Y-122884596D01*
X98865154Y-122776672D01*
X98876916Y-122722643D01*
X98884396Y-122632933D01*
X98863187Y-122610107D01*
X98792543Y-122608360D01*
X98767183Y-122681216D01*
X98787504Y-122784477D01*
X98853901Y-122873947D01*
X98860779Y-122878888D01*
X98825259Y-122940411D01*
X98808880Y-122935607D01*
X98739000Y-122856406D01*
X98715837Y-122721182D01*
X98768477Y-122610482D01*
X98870514Y-122568491D01*
X98906674Y-122575850D01*
X98976759Y-122642566D01*
X98967362Y-122692986D01*
X98968309Y-122797503D01*
X99010998Y-122861904D01*
X99086395Y-122907843D01*
X99121112Y-122842376D01*
X99123482Y-122653226D01*
X99051736Y-122446499D01*
X98894641Y-122189953D01*
X98892838Y-122187368D01*
X98769616Y-121998764D01*
X98726143Y-121907292D01*
X98757209Y-121915689D01*
G36*
X96440279Y-123839678D02*
G01*
X96568806Y-123890206D01*
X96779515Y-123998970D01*
X97029684Y-124142981D01*
X97268698Y-124290281D01*
X97458053Y-124416009D01*
X97576575Y-124505493D01*
X97605795Y-124542128D01*
X97638786Y-124597546D01*
X97750103Y-124679970D01*
X97774959Y-124694788D01*
X97909845Y-124760115D01*
X97989739Y-124744338D01*
X98058796Y-124647669D01*
X98121586Y-124466166D01*
X98093013Y-124336195D01*
X97993975Y-124279717D01*
X97845374Y-124318693D01*
X97784673Y-124359613D01*
X97707655Y-124409416D01*
X97711623Y-124369663D01*
X97718640Y-124355885D01*
X97814118Y-124268394D01*
X97956279Y-124211629D01*
X98078274Y-124210943D01*
X98088206Y-124215729D01*
X98156419Y-124319428D01*
X98166267Y-124482195D01*
X98126632Y-124655369D01*
X98046398Y-124790285D01*
X97975180Y-124834827D01*
X97895142Y-124811234D01*
X97734410Y-124733837D01*
X97519041Y-124617637D01*
X97275090Y-124477633D01*
X97028613Y-124328826D01*
X96805666Y-124186214D01*
X96712934Y-124121270D01*
X96730100Y-124091538D01*
X96773471Y-124079916D01*
X96761850Y-124036545D01*
X96718478Y-124048166D01*
X96730100Y-124091538D01*
X96712934Y-124121270D01*
X96632301Y-124064798D01*
X96616230Y-124052490D01*
X96457145Y-123919321D01*
X96400777Y-123848884D01*
X96440279Y-123839678D01*
G37*
X96440279Y-123839678D02*
X96568806Y-123890206D01*
X96779515Y-123998970D01*
X97029684Y-124142981D01*
X97268698Y-124290281D01*
X97458053Y-124416009D01*
X97576575Y-124505493D01*
X97605795Y-124542128D01*
X97638786Y-124597546D01*
X97750103Y-124679970D01*
X97774959Y-124694788D01*
X97909845Y-124760115D01*
X97989739Y-124744338D01*
X98058796Y-124647669D01*
X98121586Y-124466166D01*
X98093013Y-124336195D01*
X97993975Y-124279717D01*
X97845374Y-124318693D01*
X97784673Y-124359613D01*
X97707655Y-124409416D01*
X97711623Y-124369663D01*
X97718640Y-124355885D01*
X97814118Y-124268394D01*
X97956279Y-124211629D01*
X98078274Y-124210943D01*
X98088206Y-124215729D01*
X98156419Y-124319428D01*
X98166267Y-124482195D01*
X98126632Y-124655369D01*
X98046398Y-124790285D01*
X97975180Y-124834827D01*
X97895142Y-124811234D01*
X97734410Y-124733837D01*
X97519041Y-124617637D01*
X97275090Y-124477633D01*
X97028613Y-124328826D01*
X96805666Y-124186214D01*
X96712934Y-124121270D01*
X96730100Y-124091538D01*
X96773471Y-124079916D01*
X96761850Y-124036545D01*
X96718478Y-124048166D01*
X96730100Y-124091538D01*
X96712934Y-124121270D01*
X96632301Y-124064798D01*
X96616230Y-124052490D01*
X96457145Y-123919321D01*
X96400777Y-123848884D01*
X96440279Y-123839678D01*
G36*
X98261791Y-123570008D02*
G01*
X98437778Y-123630019D01*
X98537004Y-123722396D01*
X98536533Y-123820203D01*
X98474718Y-123834275D01*
X98436722Y-123802581D01*
X98456445Y-123768420D01*
X98499816Y-123756799D01*
X98488195Y-123713428D01*
X98444823Y-123725049D01*
X98456445Y-123768420D01*
X98436722Y-123802581D01*
X98432674Y-123799204D01*
X98327168Y-123701722D01*
X98220734Y-123626545D01*
X98076509Y-123537488D01*
X98261791Y-123570008D01*
G37*
X98261791Y-123570008D02*
X98437778Y-123630019D01*
X98537004Y-123722396D01*
X98536533Y-123820203D01*
X98474718Y-123834275D01*
X98436722Y-123802581D01*
X98456445Y-123768420D01*
X98499816Y-123756799D01*
X98488195Y-123713428D01*
X98444823Y-123725049D01*
X98456445Y-123768420D01*
X98436722Y-123802581D01*
X98432674Y-123799204D01*
X98327168Y-123701722D01*
X98220734Y-123626545D01*
X98076509Y-123537488D01*
X98261791Y-123570008D01*
G36*
X97147693Y-124793647D02*
G01*
X97325482Y-124925627D01*
X97461261Y-125062363D01*
X97488758Y-125175283D01*
X97480413Y-125233074D01*
X97513069Y-125172825D01*
X97515217Y-125168075D01*
X97528104Y-125076978D01*
X97458792Y-124991232D01*
X97351941Y-124918418D01*
X97149832Y-124793540D01*
X97235803Y-124789230D01*
X97352815Y-124831009D01*
X97528973Y-124950934D01*
X97604401Y-125087814D01*
X97576454Y-125216046D01*
X97442495Y-125310027D01*
X97403489Y-125322262D01*
X97231800Y-125310923D01*
X97121604Y-125254933D01*
X97153859Y-125199066D01*
X97257217Y-125251095D01*
X97277249Y-125243628D01*
X97264616Y-125229479D01*
X97130079Y-125140401D01*
X97072142Y-125118354D01*
X97045823Y-125124412D01*
X97116854Y-125176992D01*
X97153859Y-125199066D01*
X97121604Y-125254933D01*
X97100319Y-125244119D01*
X96985098Y-125134283D01*
X96982318Y-125068166D01*
X97079890Y-125064567D01*
X97190318Y-125104165D01*
X97326293Y-125149768D01*
X97404135Y-125145432D01*
X97406720Y-125142096D01*
X97380129Y-125076942D01*
X97278154Y-124982747D01*
X97265670Y-124973653D01*
X97146384Y-124861625D01*
X97140170Y-124794024D01*
X97147693Y-124793647D01*
G37*
X97147693Y-124793647D02*
X97325482Y-124925627D01*
X97461261Y-125062363D01*
X97488758Y-125175283D01*
X97480413Y-125233074D01*
X97513069Y-125172825D01*
X97515217Y-125168075D01*
X97528104Y-125076978D01*
X97458792Y-124991232D01*
X97351941Y-124918418D01*
X97149832Y-124793540D01*
X97235803Y-124789230D01*
X97352815Y-124831009D01*
X97528973Y-124950934D01*
X97604401Y-125087814D01*
X97576454Y-125216046D01*
X97442495Y-125310027D01*
X97403489Y-125322262D01*
X97231800Y-125310923D01*
X97121604Y-125254933D01*
X97153859Y-125199066D01*
X97257217Y-125251095D01*
X97277249Y-125243628D01*
X97264616Y-125229479D01*
X97130079Y-125140401D01*
X97072142Y-125118354D01*
X97045823Y-125124412D01*
X97116854Y-125176992D01*
X97153859Y-125199066D01*
X97121604Y-125254933D01*
X97100319Y-125244119D01*
X96985098Y-125134283D01*
X96982318Y-125068166D01*
X97079890Y-125064567D01*
X97190318Y-125104165D01*
X97326293Y-125149768D01*
X97404135Y-125145432D01*
X97406720Y-125142096D01*
X97380129Y-125076942D01*
X97278154Y-124982747D01*
X97265670Y-124973653D01*
X97146384Y-124861625D01*
X97140170Y-124794024D01*
X97147693Y-124793647D01*
G36*
X98119487Y-122747434D02*
G01*
X98150502Y-122738072D01*
X98280866Y-122749000D01*
X98430748Y-122821552D01*
X98564297Y-122928042D01*
X98645659Y-123040785D01*
X98646756Y-123121291D01*
X98594970Y-123158916D01*
X98504717Y-123119850D01*
X98403408Y-123041924D01*
X98274605Y-122944505D01*
X98203966Y-122927666D01*
X98157433Y-122984669D01*
X98153587Y-122992516D01*
X98134441Y-123080333D01*
X98216482Y-123100864D01*
X98223967Y-123100650D01*
X98340666Y-123128998D01*
X98429538Y-123198975D01*
X98456745Y-123275564D01*
X98427438Y-123311215D01*
X98332612Y-123306283D01*
X98263191Y-123277646D01*
X98294506Y-123223407D01*
X98377564Y-123259838D01*
X98379260Y-123235357D01*
X98270865Y-123163091D01*
X98241779Y-123155982D01*
X98223281Y-123172065D01*
X98294506Y-123223407D01*
X98263191Y-123277646D01*
X98188809Y-123246966D01*
X98170829Y-123236903D01*
X98035880Y-123132564D01*
X97994942Y-123008482D01*
X97995374Y-122998357D01*
X98033461Y-122932388D01*
X98079294Y-122920903D01*
X98127891Y-122893722D01*
X98235405Y-122865977D01*
X98360015Y-122920695D01*
X98428924Y-122971705D01*
X98612573Y-123116999D01*
X98470964Y-122956655D01*
X98343076Y-122840591D01*
X98228532Y-122780415D01*
X98224817Y-122779744D01*
X98108115Y-122813972D01*
X98065392Y-122862104D01*
X98033461Y-122932388D01*
X97995374Y-122998357D01*
X97997403Y-122950759D01*
X98031113Y-122811765D01*
X98119487Y-122747434D01*
G37*
X98119487Y-122747434D02*
X98150502Y-122738072D01*
X98280866Y-122749000D01*
X98430748Y-122821552D01*
X98564297Y-122928042D01*
X98645659Y-123040785D01*
X98646756Y-123121291D01*
X98594970Y-123158916D01*
X98504717Y-123119850D01*
X98403408Y-123041924D01*
X98274605Y-122944505D01*
X98203966Y-122927666D01*
X98157433Y-122984669D01*
X98153587Y-122992516D01*
X98134441Y-123080333D01*
X98216482Y-123100864D01*
X98223967Y-123100650D01*
X98340666Y-123128998D01*
X98429538Y-123198975D01*
X98456745Y-123275564D01*
X98427438Y-123311215D01*
X98332612Y-123306283D01*
X98263191Y-123277646D01*
X98294506Y-123223407D01*
X98377564Y-123259838D01*
X98379260Y-123235357D01*
X98270865Y-123163091D01*
X98241779Y-123155982D01*
X98223281Y-123172065D01*
X98294506Y-123223407D01*
X98263191Y-123277646D01*
X98188809Y-123246966D01*
X98170829Y-123236903D01*
X98035880Y-123132564D01*
X97994942Y-123008482D01*
X97995374Y-122998357D01*
X98033461Y-122932388D01*
X98079294Y-122920903D01*
X98127891Y-122893722D01*
X98235405Y-122865977D01*
X98360015Y-122920695D01*
X98428924Y-122971705D01*
X98612573Y-123116999D01*
X98470964Y-122956655D01*
X98343076Y-122840591D01*
X98228532Y-122780415D01*
X98224817Y-122779744D01*
X98108115Y-122813972D01*
X98065392Y-122862104D01*
X98033461Y-122932388D01*
X97995374Y-122998357D01*
X97997403Y-122950759D01*
X98031113Y-122811765D01*
X98119487Y-122747434D01*
G36*
X96775974Y-126171081D02*
G01*
X96787595Y-126214452D01*
X96744224Y-126226073D01*
X96732603Y-126182702D01*
X96775974Y-126171081D01*
G37*
X96775974Y-126171081D02*
X96787595Y-126214452D01*
X96744224Y-126226073D01*
X96732603Y-126182702D01*
X96775974Y-126171081D01*
G36*
X95869504Y-127211965D02*
G01*
X95897839Y-127238389D01*
X95885000Y-127269793D01*
X95838745Y-127303442D01*
X95827171Y-127285288D01*
X95858269Y-127216225D01*
X95869504Y-127211965D01*
G37*
X95869504Y-127211965D02*
X95897839Y-127238389D01*
X95885000Y-127269793D01*
X95838745Y-127303442D01*
X95827171Y-127285288D01*
X95858269Y-127216225D01*
X95869504Y-127211965D01*
G36*
X95897761Y-127057190D02*
G01*
X95909382Y-127100562D01*
X95866011Y-127112183D01*
X95854390Y-127068812D01*
X95897761Y-127057190D01*
G37*
X95897761Y-127057190D02*
X95909382Y-127100562D01*
X95866011Y-127112183D01*
X95854390Y-127068812D01*
X95897761Y-127057190D01*
G36*
X98010683Y-123384272D02*
G01*
X98026208Y-123415104D01*
X97997894Y-123473125D01*
X97950585Y-123524050D01*
X97945487Y-123487168D01*
X97988553Y-123397436D01*
X98010683Y-123384272D01*
G37*
X98010683Y-123384272D02*
X98026208Y-123415104D01*
X97997894Y-123473125D01*
X97950585Y-123524050D01*
X97945487Y-123487168D01*
X97988553Y-123397436D01*
X98010683Y-123384272D01*
G36*
X96018533Y-126467007D02*
G01*
X96030155Y-126510378D01*
X95986783Y-126521999D01*
X95975162Y-126478628D01*
X96018533Y-126467007D01*
G37*
X96018533Y-126467007D02*
X96030155Y-126510378D01*
X95986783Y-126521999D01*
X95975162Y-126478628D01*
X96018533Y-126467007D01*
G36*
X95755864Y-124847846D02*
G01*
X95963281Y-124512799D01*
X96124054Y-124276867D01*
X96241414Y-124135145D01*
X96318586Y-124082730D01*
X96339439Y-124085960D01*
X96366537Y-124163766D01*
X96368055Y-124317728D01*
X96349305Y-124500814D01*
X96315600Y-124665994D01*
X96272252Y-124766239D01*
X96261599Y-124775099D01*
X96233966Y-124826302D01*
X96248749Y-124840159D01*
X96259596Y-124911030D01*
X96248850Y-125079865D01*
X96219021Y-125319942D01*
X96181765Y-125553051D01*
X96120837Y-125901785D01*
X96078034Y-126143448D01*
X96049656Y-126296080D01*
X96031999Y-126377723D01*
X96021362Y-126406413D01*
X96014042Y-126400193D01*
X96010238Y-126388894D01*
X96010594Y-126308350D01*
X96024499Y-126136340D01*
X96049065Y-125907332D01*
X96054199Y-125864349D01*
X96106662Y-125411142D01*
X96139517Y-125072110D01*
X96152935Y-124835977D01*
X96152180Y-124817356D01*
X96208781Y-124719319D01*
X96245833Y-124730646D01*
X96266611Y-124703824D01*
X96272623Y-124646942D01*
X96251115Y-124645995D01*
X96206853Y-124707459D01*
X96208781Y-124719319D01*
X96152180Y-124817356D01*
X96147081Y-124691469D01*
X96122131Y-124627309D01*
X96078249Y-124632222D01*
X96072679Y-124636190D01*
X95998756Y-124688281D01*
X96016470Y-124654754D01*
X96048246Y-124614413D01*
X96137705Y-124556142D01*
X96189177Y-124569306D01*
X96244754Y-124562174D01*
X96290897Y-124457300D01*
X96316723Y-124283933D01*
X96318902Y-124220750D01*
X96320434Y-124183195D01*
X96319716Y-124156791D01*
X96309821Y-124152197D01*
X96283822Y-124180072D01*
X96234788Y-124251076D01*
X96155793Y-124375867D01*
X96039908Y-124565105D01*
X95880204Y-124829449D01*
X95669752Y-125179557D01*
X95401626Y-125626089D01*
X95355208Y-125703370D01*
X95100353Y-126131940D01*
X94892047Y-126491147D01*
X94734988Y-126772471D01*
X94633874Y-126967385D01*
X94593403Y-127067370D01*
X94596840Y-127079143D01*
X94653437Y-127025233D01*
X94753370Y-126879889D01*
X94882580Y-126664970D01*
X95002883Y-126447738D01*
X95339632Y-125818411D01*
X95053990Y-126423392D01*
X94889347Y-126759877D01*
X94762646Y-126988016D01*
X94666526Y-127118108D01*
X94593622Y-127160451D01*
X94544791Y-127135576D01*
X94548337Y-127075170D01*
X94602973Y-126936262D01*
X94712156Y-126711863D01*
X94879344Y-126394983D01*
X95107994Y-125978630D01*
X95188189Y-125834896D01*
X95498576Y-125286910D01*
X95755864Y-124847846D01*
G37*
X95755864Y-124847846D02*
X95963281Y-124512799D01*
X96124054Y-124276867D01*
X96241414Y-124135145D01*
X96318586Y-124082730D01*
X96339439Y-124085960D01*
X96366537Y-124163766D01*
X96368055Y-124317728D01*
X96349305Y-124500814D01*
X96315600Y-124665994D01*
X96272252Y-124766239D01*
X96261599Y-124775099D01*
X96233966Y-124826302D01*
X96248749Y-124840159D01*
X96259596Y-124911030D01*
X96248850Y-125079865D01*
X96219021Y-125319942D01*
X96181765Y-125553051D01*
X96120837Y-125901785D01*
X96078034Y-126143448D01*
X96049656Y-126296080D01*
X96031999Y-126377723D01*
X96021362Y-126406413D01*
X96014042Y-126400193D01*
X96010238Y-126388894D01*
X96010594Y-126308350D01*
X96024499Y-126136340D01*
X96049065Y-125907332D01*
X96054199Y-125864349D01*
X96106662Y-125411142D01*
X96139517Y-125072110D01*
X96152935Y-124835977D01*
X96152180Y-124817356D01*
X96208781Y-124719319D01*
X96245833Y-124730646D01*
X96266611Y-124703824D01*
X96272623Y-124646942D01*
X96251115Y-124645995D01*
X96206853Y-124707459D01*
X96208781Y-124719319D01*
X96152180Y-124817356D01*
X96147081Y-124691469D01*
X96122131Y-124627309D01*
X96078249Y-124632222D01*
X96072679Y-124636190D01*
X95998756Y-124688281D01*
X96016470Y-124654754D01*
X96048246Y-124614413D01*
X96137705Y-124556142D01*
X96189177Y-124569306D01*
X96244754Y-124562174D01*
X96290897Y-124457300D01*
X96316723Y-124283933D01*
X96318902Y-124220750D01*
X96320434Y-124183195D01*
X96319716Y-124156791D01*
X96309821Y-124152197D01*
X96283822Y-124180072D01*
X96234788Y-124251076D01*
X96155793Y-124375867D01*
X96039908Y-124565105D01*
X95880204Y-124829449D01*
X95669752Y-125179557D01*
X95401626Y-125626089D01*
X95355208Y-125703370D01*
X95100353Y-126131940D01*
X94892047Y-126491147D01*
X94734988Y-126772471D01*
X94633874Y-126967385D01*
X94593403Y-127067370D01*
X94596840Y-127079143D01*
X94653437Y-127025233D01*
X94753370Y-126879889D01*
X94882580Y-126664970D01*
X95002883Y-126447738D01*
X95339632Y-125818411D01*
X95053990Y-126423392D01*
X94889347Y-126759877D01*
X94762646Y-126988016D01*
X94666526Y-127118108D01*
X94593622Y-127160451D01*
X94544791Y-127135576D01*
X94548337Y-127075170D01*
X94602973Y-126936262D01*
X94712156Y-126711863D01*
X94879344Y-126394983D01*
X95107994Y-125978630D01*
X95188189Y-125834896D01*
X95498576Y-125286910D01*
X95755864Y-124847846D01*
G36*
X93427821Y-128510373D02*
G01*
X93605920Y-128354795D01*
X93889809Y-128147778D01*
X94283128Y-127886143D01*
X94284270Y-127885405D01*
X94560771Y-127708990D01*
X94792365Y-127565165D01*
X94961798Y-127464326D01*
X95051814Y-127416868D01*
X95061155Y-127417395D01*
X95001927Y-127472940D01*
X94859528Y-127590986D01*
X94651856Y-127757135D01*
X94396815Y-127956993D01*
X94225227Y-128089617D01*
X94053749Y-128219112D01*
X94128879Y-128088983D01*
X94172251Y-128077362D01*
X94160629Y-128033991D01*
X94117258Y-128045612D01*
X94128879Y-128088983D01*
X94053749Y-128219112D01*
X93950260Y-128297265D01*
X93924529Y-128315928D01*
X94010387Y-128167219D01*
X94053758Y-128155597D01*
X94042137Y-128112226D01*
X93998765Y-128123847D01*
X94010387Y-128167219D01*
X93924529Y-128315928D01*
X93709777Y-128471696D01*
X93521767Y-128600428D01*
X93428733Y-128656268D01*
X93496429Y-128539015D01*
X93590444Y-128491423D01*
X93663521Y-128443558D01*
X93827945Y-128322532D01*
X93913786Y-128245188D01*
X93914979Y-128221515D01*
X93825463Y-128261502D01*
X93745905Y-128307814D01*
X93594265Y-128412560D01*
X93492280Y-128505624D01*
X93480916Y-128521440D01*
X93496429Y-128539015D01*
X93428733Y-128656268D01*
X93404221Y-128670981D01*
X93374425Y-128679928D01*
X93351869Y-128617691D01*
X93427821Y-128510373D01*
G37*
X93427821Y-128510373D02*
X93605920Y-128354795D01*
X93889809Y-128147778D01*
X94283128Y-127886143D01*
X94284270Y-127885405D01*
X94560771Y-127708990D01*
X94792365Y-127565165D01*
X94961798Y-127464326D01*
X95051814Y-127416868D01*
X95061155Y-127417395D01*
X95001927Y-127472940D01*
X94859528Y-127590986D01*
X94651856Y-127757135D01*
X94396815Y-127956993D01*
X94225227Y-128089617D01*
X94053749Y-128219112D01*
X94128879Y-128088983D01*
X94172251Y-128077362D01*
X94160629Y-128033991D01*
X94117258Y-128045612D01*
X94128879Y-128088983D01*
X94053749Y-128219112D01*
X93950260Y-128297265D01*
X93924529Y-128315928D01*
X94010387Y-128167219D01*
X94053758Y-128155597D01*
X94042137Y-128112226D01*
X93998765Y-128123847D01*
X94010387Y-128167219D01*
X93924529Y-128315928D01*
X93709777Y-128471696D01*
X93521767Y-128600428D01*
X93428733Y-128656268D01*
X93496429Y-128539015D01*
X93590444Y-128491423D01*
X93663521Y-128443558D01*
X93827945Y-128322532D01*
X93913786Y-128245188D01*
X93914979Y-128221515D01*
X93825463Y-128261502D01*
X93745905Y-128307814D01*
X93594265Y-128412560D01*
X93492280Y-128505624D01*
X93480916Y-128521440D01*
X93496429Y-128539015D01*
X93428733Y-128656268D01*
X93404221Y-128670981D01*
X93374425Y-128679928D01*
X93351869Y-128617691D01*
X93427821Y-128510373D01*
D12*
X91567000Y-124400000D02*
X92897000Y-124400000D01*
X92897000Y-124400000D02*
X92897000Y-125730000D01*
X92897000Y-126940000D02*
X92897000Y-127060000D01*
X90237000Y-126940000D02*
X90237000Y-127060000D01*
X90237000Y-127060000D02*
X92897000Y-127060000D01*
X102045392Y-124057665D02*
G75*
G03X101888484Y-127290000I1078608J-1672335D01*
G01*
X104202608Y-124057665D02*
G75*
G02X104359516Y-127290000I-1078608J-1672335D01*
G01*
X102044163Y-124688870D02*
G75*
G03X102044000Y-126770961I1079837J-1041130D01*
G01*
X104203837Y-124688870D02*
G75*
G02X104204000Y-126770961I-1079837J-1041130D01*
G01*
X101888000Y-127290000D02*
X102044000Y-127290000D01*
X104204000Y-127290000D02*
X104360000Y-127290000D01*
X108776000Y-127290000D02*
X108932000Y-127290000D01*
X106460000Y-127290000D02*
X106616000Y-127290000D01*
X108775837Y-124688870D02*
G75*
G02X108776000Y-126770961I-1079837J-1041130D01*
G01*
X106616163Y-124688870D02*
G75*
G03X106616000Y-126770961I1079837J-1041130D01*
G01*
X108774608Y-124057665D02*
G75*
G02X108931516Y-127290000I-1078608J-1672335D01*
G01*
X106617392Y-124057665D02*
G75*
G03X106460484Y-127290000I1078608J-1672335D01*
G01*
X124571000Y-122357000D02*
X121711000Y-122357000D01*
X121711000Y-122357000D02*
X121711000Y-124277000D01*
X121711000Y-124277000D02*
X124571000Y-124277000D01*
X121584000Y-128849000D02*
X124444000Y-128849000D01*
X121584000Y-126929000D02*
X121584000Y-128849000D01*
X124444000Y-126929000D02*
X121584000Y-126929000D01*
X114665000Y-122230000D02*
X111805000Y-122230000D01*
X111805000Y-122230000D02*
X111805000Y-124150000D01*
X111805000Y-124150000D02*
X114665000Y-124150000D01*
X115525000Y-127310000D02*
X112665000Y-127310000D01*
X115525000Y-129230000D02*
X115525000Y-127310000D01*
X112665000Y-129230000D02*
X115525000Y-129230000D01*
D13*
X90305095Y-122412380D02*
X90876523Y-122412380D01*
X90590809Y-123412380D02*
X90590809Y-122412380D01*
X91209857Y-123412380D02*
X91209857Y-122412380D01*
X91590809Y-122412380D01*
X91686047Y-122460000D01*
X91733666Y-122507619D01*
X91781285Y-122602857D01*
X91781285Y-122745714D01*
X91733666Y-122840952D01*
X91686047Y-122888571D01*
X91590809Y-122936190D01*
X91209857Y-122936190D01*
X92733666Y-123412380D02*
X92162238Y-123412380D01*
X92447952Y-123412380D02*
X92447952Y-122412380D01*
X92352714Y-122555238D01*
X92257476Y-122650476D01*
X92162238Y-122698095D01*
D10*
X102025523Y-129393904D02*
X102025523Y-128593904D01*
X102216000Y-128593904D01*
X102330285Y-128632000D01*
X102406476Y-128708190D01*
X102444571Y-128784380D01*
X102482666Y-128936761D01*
X102482666Y-129051047D01*
X102444571Y-129203428D01*
X102406476Y-129279619D01*
X102330285Y-129355809D01*
X102216000Y-129393904D01*
X102025523Y-129393904D01*
X103244571Y-129393904D02*
X102787428Y-129393904D01*
X103016000Y-129393904D02*
X103016000Y-128593904D01*
X102939809Y-128708190D01*
X102863619Y-128784380D01*
X102787428Y-128822476D01*
X108629523Y-129393904D02*
X108629523Y-128593904D01*
X108820000Y-128593904D01*
X108934285Y-128632000D01*
X109010476Y-128708190D01*
X109048571Y-128784380D01*
X109086666Y-128936761D01*
X109086666Y-129051047D01*
X109048571Y-129203428D01*
X109010476Y-129279619D01*
X108934285Y-129355809D01*
X108820000Y-129393904D01*
X108629523Y-129393904D01*
X109391428Y-128670095D02*
X109429523Y-128632000D01*
X109505714Y-128593904D01*
X109696190Y-128593904D01*
X109772380Y-128632000D01*
X109810476Y-128670095D01*
X109848571Y-128746285D01*
X109848571Y-128822476D01*
X109810476Y-128936761D01*
X109353333Y-129393904D01*
X109848571Y-129393904D01*
D13*
X121229380Y-123610666D02*
X120753190Y-123944000D01*
X121229380Y-124182095D02*
X120229380Y-124182095D01*
X120229380Y-123801142D01*
X120277000Y-123705904D01*
X120324619Y-123658285D01*
X120419857Y-123610666D01*
X120562714Y-123610666D01*
X120657952Y-123658285D01*
X120705571Y-123705904D01*
X120753190Y-123801142D01*
X120753190Y-124182095D01*
X121229380Y-122658285D02*
X121229380Y-123229714D01*
X121229380Y-122944000D02*
X120229380Y-122944000D01*
X120372238Y-123039238D01*
X120467476Y-123134476D01*
X120515095Y-123229714D01*
X121093380Y-128055666D02*
X120617190Y-128389000D01*
X121093380Y-128627095D02*
X120093380Y-128627095D01*
X120093380Y-128246142D01*
X120141000Y-128150904D01*
X120188619Y-128103285D01*
X120283857Y-128055666D01*
X120426714Y-128055666D01*
X120521952Y-128103285D01*
X120569571Y-128150904D01*
X120617190Y-128246142D01*
X120617190Y-128627095D01*
X120188619Y-127674714D02*
X120141000Y-127627095D01*
X120093380Y-127531857D01*
X120093380Y-127293761D01*
X120141000Y-127198523D01*
X120188619Y-127150904D01*
X120283857Y-127103285D01*
X120379095Y-127103285D01*
X120521952Y-127150904D01*
X121093380Y-127722333D01*
X121093380Y-127103285D01*
X116419333Y-123642380D02*
X116086000Y-123166190D01*
X115847904Y-123642380D02*
X115847904Y-122642380D01*
X116228857Y-122642380D01*
X116324095Y-122690000D01*
X116371714Y-122737619D01*
X116419333Y-122832857D01*
X116419333Y-122975714D01*
X116371714Y-123070952D01*
X116324095Y-123118571D01*
X116228857Y-123166190D01*
X115847904Y-123166190D01*
X117324095Y-122642380D02*
X116847904Y-122642380D01*
X116800285Y-123118571D01*
X116847904Y-123070952D01*
X116943142Y-123023333D01*
X117181238Y-123023333D01*
X117276476Y-123070952D01*
X117324095Y-123118571D01*
X117371714Y-123213809D01*
X117371714Y-123451904D01*
X117324095Y-123547142D01*
X117276476Y-123594761D01*
X117181238Y-123642380D01*
X116943142Y-123642380D01*
X116847904Y-123594761D01*
X116800285Y-123547142D01*
X116410333Y-128595380D02*
X116077000Y-128119190D01*
X115838904Y-128595380D02*
X115838904Y-127595380D01*
X116219857Y-127595380D01*
X116315095Y-127643000D01*
X116362714Y-127690619D01*
X116410333Y-127785857D01*
X116410333Y-127928714D01*
X116362714Y-128023952D01*
X116315095Y-128071571D01*
X116219857Y-128119190D01*
X115838904Y-128119190D01*
X117267476Y-127595380D02*
X117077000Y-127595380D01*
X116981761Y-127643000D01*
X116934142Y-127690619D01*
X116838904Y-127833476D01*
X116791285Y-128023952D01*
X116791285Y-128404904D01*
X116838904Y-128500142D01*
X116886523Y-128547761D01*
X116981761Y-128595380D01*
X117172238Y-128595380D01*
X117267476Y-128547761D01*
X117315095Y-128500142D01*
X117362714Y-128404904D01*
X117362714Y-128166809D01*
X117315095Y-128071571D01*
X117267476Y-128023952D01*
X117172238Y-127976333D01*
X116981761Y-127976333D01*
X116886523Y-128023952D01*
X116838904Y-128071571D01*
X116791285Y-128166809D01*
M02*
