G04 #@! TF.GenerationSoftware,KiCad,Pcbnew,(5.1.5-0-10_14)*
G04 #@! TF.CreationDate,2021-09-17T07:52:49+02:00*
G04 #@! TF.ProjectId,Fluke 9010a Probe,466c756b-6520-4393-9031-30612050726f,1.2*
G04 #@! TF.SameCoordinates,Original*
G04 #@! TF.FileFunction,Soldermask,Bot*
G04 #@! TF.FilePolarity,Negative*
%FSLAX46Y46*%
G04 Gerber Fmt 4.6, Leading zero omitted, Abs format (unit mm)*
G04 Created by KiCad (PCBNEW (5.1.5-0-10_14)) date 2021-09-17 07:52:49*
%MOMM*%
%LPD*%
G04 APERTURE LIST*
%ADD10C,0.100000*%
G04 APERTURE END LIST*
D10*
G36*
X126191674Y-128038465D02*
G01*
X126229367Y-128049899D01*
X126264103Y-128068466D01*
X126294548Y-128093452D01*
X126319534Y-128123897D01*
X126338101Y-128158633D01*
X126349535Y-128196326D01*
X126354000Y-128241661D01*
X126354000Y-129078339D01*
X126349535Y-129123674D01*
X126338101Y-129161367D01*
X126319534Y-129196103D01*
X126294548Y-129226548D01*
X126264103Y-129251534D01*
X126229367Y-129270101D01*
X126191674Y-129281535D01*
X126146339Y-129286000D01*
X125059661Y-129286000D01*
X125014326Y-129281535D01*
X124976633Y-129270101D01*
X124941897Y-129251534D01*
X124911452Y-129226548D01*
X124886466Y-129196103D01*
X124867899Y-129161367D01*
X124856465Y-129123674D01*
X124852000Y-129078339D01*
X124852000Y-128241661D01*
X124856465Y-128196326D01*
X124867899Y-128158633D01*
X124886466Y-128123897D01*
X124911452Y-128093452D01*
X124941897Y-128068466D01*
X124976633Y-128049899D01*
X125014326Y-128038465D01*
X125059661Y-128034000D01*
X126146339Y-128034000D01*
X126191674Y-128038465D01*
G37*
G36*
X123270674Y-128038465D02*
G01*
X123308367Y-128049899D01*
X123343103Y-128068466D01*
X123373548Y-128093452D01*
X123398534Y-128123897D01*
X123417101Y-128158633D01*
X123428535Y-128196326D01*
X123433000Y-128241661D01*
X123433000Y-129078339D01*
X123428535Y-129123674D01*
X123417101Y-129161367D01*
X123398534Y-129196103D01*
X123373548Y-129226548D01*
X123343103Y-129251534D01*
X123308367Y-129270101D01*
X123270674Y-129281535D01*
X123225339Y-129286000D01*
X122138661Y-129286000D01*
X122093326Y-129281535D01*
X122055633Y-129270101D01*
X122020897Y-129251534D01*
X121990452Y-129226548D01*
X121965466Y-129196103D01*
X121946899Y-129161367D01*
X121935465Y-129123674D01*
X121931000Y-129078339D01*
X121931000Y-128241661D01*
X121935465Y-128196326D01*
X121946899Y-128158633D01*
X121965466Y-128123897D01*
X121990452Y-128093452D01*
X122020897Y-128068466D01*
X122055633Y-128049899D01*
X122093326Y-128038465D01*
X122138661Y-128034000D01*
X123225339Y-128034000D01*
X123270674Y-128038465D01*
G37*
G36*
X131228512Y-127373927D02*
G01*
X131377812Y-127403624D01*
X131541784Y-127471544D01*
X131689354Y-127570147D01*
X131814853Y-127695646D01*
X131913456Y-127843216D01*
X131981376Y-128007188D01*
X132016000Y-128181259D01*
X132016000Y-128358741D01*
X131981376Y-128532812D01*
X131913456Y-128696784D01*
X131814853Y-128844354D01*
X131689354Y-128969853D01*
X131541784Y-129068456D01*
X131377812Y-129136376D01*
X131233715Y-129165038D01*
X131203742Y-129171000D01*
X131026258Y-129171000D01*
X130996285Y-129165038D01*
X130852188Y-129136376D01*
X130688216Y-129068456D01*
X130540646Y-128969853D01*
X130415147Y-128844354D01*
X130316544Y-128696784D01*
X130248624Y-128532812D01*
X130214000Y-128358741D01*
X130214000Y-128181259D01*
X130248624Y-128007188D01*
X130316544Y-127843216D01*
X130415147Y-127695646D01*
X130540646Y-127570147D01*
X130688216Y-127471544D01*
X130852188Y-127403624D01*
X131001488Y-127373927D01*
X131026258Y-127369000D01*
X131203742Y-127369000D01*
X131228512Y-127373927D01*
G37*
G36*
X128688512Y-127373927D02*
G01*
X128837812Y-127403624D01*
X129001784Y-127471544D01*
X129149354Y-127570147D01*
X129274853Y-127695646D01*
X129373456Y-127843216D01*
X129441376Y-128007188D01*
X129476000Y-128181259D01*
X129476000Y-128358741D01*
X129441376Y-128532812D01*
X129373456Y-128696784D01*
X129274853Y-128844354D01*
X129149354Y-128969853D01*
X129001784Y-129068456D01*
X128837812Y-129136376D01*
X128693715Y-129165038D01*
X128663742Y-129171000D01*
X128486258Y-129171000D01*
X128456285Y-129165038D01*
X128312188Y-129136376D01*
X128148216Y-129068456D01*
X128000646Y-128969853D01*
X127875147Y-128844354D01*
X127776544Y-128696784D01*
X127708624Y-128532812D01*
X127674000Y-128358741D01*
X127674000Y-128181259D01*
X127708624Y-128007188D01*
X127776544Y-127843216D01*
X127875147Y-127695646D01*
X128000646Y-127570147D01*
X128148216Y-127471544D01*
X128312188Y-127403624D01*
X128461488Y-127373927D01*
X128486258Y-127369000D01*
X128663742Y-127369000D01*
X128688512Y-127373927D01*
G37*
G36*
X136308512Y-127373927D02*
G01*
X136457812Y-127403624D01*
X136621784Y-127471544D01*
X136769354Y-127570147D01*
X136894853Y-127695646D01*
X136993456Y-127843216D01*
X137061376Y-128007188D01*
X137096000Y-128181259D01*
X137096000Y-128358741D01*
X137061376Y-128532812D01*
X136993456Y-128696784D01*
X136894853Y-128844354D01*
X136769354Y-128969853D01*
X136621784Y-129068456D01*
X136457812Y-129136376D01*
X136313715Y-129165038D01*
X136283742Y-129171000D01*
X136106258Y-129171000D01*
X136076285Y-129165038D01*
X135932188Y-129136376D01*
X135768216Y-129068456D01*
X135620646Y-128969853D01*
X135495147Y-128844354D01*
X135396544Y-128696784D01*
X135328624Y-128532812D01*
X135294000Y-128358741D01*
X135294000Y-128181259D01*
X135328624Y-128007188D01*
X135396544Y-127843216D01*
X135495147Y-127695646D01*
X135620646Y-127570147D01*
X135768216Y-127471544D01*
X135932188Y-127403624D01*
X136081488Y-127373927D01*
X136106258Y-127369000D01*
X136283742Y-127369000D01*
X136308512Y-127373927D01*
G37*
G36*
X139636000Y-129171000D02*
G01*
X137834000Y-129171000D01*
X137834000Y-127369000D01*
X139636000Y-127369000D01*
X139636000Y-129171000D01*
G37*
G36*
X117131675Y-126983202D02*
G01*
X117166798Y-126993857D01*
X117199175Y-127011163D01*
X117227550Y-127034450D01*
X117250837Y-127062825D01*
X117268143Y-127095202D01*
X117278798Y-127130325D01*
X117283000Y-127172995D01*
X117283000Y-128287005D01*
X117278798Y-128329675D01*
X117268143Y-128364798D01*
X117250837Y-128397175D01*
X117227550Y-128425550D01*
X117199175Y-128448837D01*
X117166798Y-128466143D01*
X117131675Y-128476798D01*
X117089005Y-128481000D01*
X115574995Y-128481000D01*
X115532325Y-128476798D01*
X115497202Y-128466143D01*
X115464825Y-128448837D01*
X115436450Y-128425550D01*
X115413163Y-128397175D01*
X115395857Y-128364798D01*
X115385202Y-128329675D01*
X115381000Y-128287005D01*
X115381000Y-127172995D01*
X115385202Y-127130325D01*
X115395857Y-127095202D01*
X115413163Y-127062825D01*
X115436450Y-127034450D01*
X115464825Y-127011163D01*
X115497202Y-126993857D01*
X115532325Y-126983202D01*
X115574995Y-126979000D01*
X117089005Y-126979000D01*
X117131675Y-126983202D01*
G37*
G36*
X111035675Y-126983202D02*
G01*
X111070798Y-126993857D01*
X111103175Y-127011163D01*
X111131550Y-127034450D01*
X111154837Y-127062825D01*
X111172143Y-127095202D01*
X111182798Y-127130325D01*
X111187000Y-127172995D01*
X111187000Y-128287005D01*
X111182798Y-128329675D01*
X111172143Y-128364798D01*
X111154837Y-128397175D01*
X111131550Y-128425550D01*
X111103175Y-128448837D01*
X111070798Y-128466143D01*
X111035675Y-128476798D01*
X110993005Y-128481000D01*
X109478995Y-128481000D01*
X109436325Y-128476798D01*
X109401202Y-128466143D01*
X109368825Y-128448837D01*
X109340450Y-128425550D01*
X109317163Y-128397175D01*
X109299857Y-128364798D01*
X109289202Y-128329675D01*
X109285000Y-128287005D01*
X109285000Y-127172995D01*
X109289202Y-127130325D01*
X109299857Y-127095202D01*
X109317163Y-127062825D01*
X109340450Y-127034450D01*
X109368825Y-127011163D01*
X109401202Y-126993857D01*
X109436325Y-126983202D01*
X109478995Y-126979000D01*
X110993005Y-126979000D01*
X111035675Y-126983202D01*
G37*
G36*
X114685000Y-128231000D02*
G01*
X113783000Y-128231000D01*
X113783000Y-126229000D01*
X114685000Y-126229000D01*
X114685000Y-128231000D01*
G37*
G36*
X112785000Y-128231000D02*
G01*
X111883000Y-128231000D01*
X111883000Y-126229000D01*
X112785000Y-126229000D01*
X112785000Y-128231000D01*
G37*
G36*
X118881000Y-127977000D02*
G01*
X117979000Y-127977000D01*
X117979000Y-125975000D01*
X118881000Y-125975000D01*
X118881000Y-127977000D01*
G37*
G36*
X120781000Y-127977000D02*
G01*
X119879000Y-127977000D01*
X119879000Y-125975000D01*
X120781000Y-125975000D01*
X120781000Y-127977000D01*
G37*
G36*
X108647000Y-127951000D02*
G01*
X106745000Y-127951000D01*
X106745000Y-126049000D01*
X108647000Y-126049000D01*
X108647000Y-127951000D01*
G37*
G36*
X104075000Y-127951000D02*
G01*
X102173000Y-127951000D01*
X102173000Y-126049000D01*
X104075000Y-126049000D01*
X104075000Y-127951000D01*
G37*
G36*
X100029674Y-126387465D02*
G01*
X100067367Y-126398899D01*
X100102103Y-126417466D01*
X100132548Y-126442452D01*
X100157534Y-126472897D01*
X100176101Y-126507633D01*
X100187535Y-126545326D01*
X100192000Y-126590661D01*
X100192000Y-127427339D01*
X100187535Y-127472674D01*
X100176101Y-127510367D01*
X100157534Y-127545103D01*
X100132548Y-127575548D01*
X100102103Y-127600534D01*
X100067367Y-127619101D01*
X100029674Y-127630535D01*
X99984339Y-127635000D01*
X98897661Y-127635000D01*
X98852326Y-127630535D01*
X98814633Y-127619101D01*
X98779897Y-127600534D01*
X98749452Y-127575548D01*
X98724466Y-127545103D01*
X98705899Y-127510367D01*
X98694465Y-127472674D01*
X98690000Y-127427339D01*
X98690000Y-126590661D01*
X98694465Y-126545326D01*
X98705899Y-126507633D01*
X98724466Y-126472897D01*
X98749452Y-126442452D01*
X98779897Y-126417466D01*
X98814633Y-126398899D01*
X98852326Y-126387465D01*
X98897661Y-126383000D01*
X99984339Y-126383000D01*
X100029674Y-126387465D01*
G37*
G36*
X126191674Y-125988465D02*
G01*
X126229367Y-125999899D01*
X126264103Y-126018466D01*
X126294548Y-126043452D01*
X126319534Y-126073897D01*
X126338101Y-126108633D01*
X126349535Y-126146326D01*
X126354000Y-126191661D01*
X126354000Y-127028339D01*
X126349535Y-127073674D01*
X126338101Y-127111367D01*
X126319534Y-127146103D01*
X126294548Y-127176548D01*
X126264103Y-127201534D01*
X126229367Y-127220101D01*
X126191674Y-127231535D01*
X126146339Y-127236000D01*
X125059661Y-127236000D01*
X125014326Y-127231535D01*
X124976633Y-127220101D01*
X124941897Y-127201534D01*
X124911452Y-127176548D01*
X124886466Y-127146103D01*
X124867899Y-127111367D01*
X124856465Y-127073674D01*
X124852000Y-127028339D01*
X124852000Y-126191661D01*
X124856465Y-126146326D01*
X124867899Y-126108633D01*
X124886466Y-126073897D01*
X124911452Y-126043452D01*
X124941897Y-126018466D01*
X124976633Y-125999899D01*
X125014326Y-125988465D01*
X125059661Y-125984000D01*
X126146339Y-125984000D01*
X126191674Y-125988465D01*
G37*
G36*
X123270674Y-125988465D02*
G01*
X123308367Y-125999899D01*
X123343103Y-126018466D01*
X123373548Y-126043452D01*
X123398534Y-126073897D01*
X123417101Y-126108633D01*
X123428535Y-126146326D01*
X123433000Y-126191661D01*
X123433000Y-127028339D01*
X123428535Y-127073674D01*
X123417101Y-127111367D01*
X123398534Y-127146103D01*
X123373548Y-127176548D01*
X123343103Y-127201534D01*
X123308367Y-127220101D01*
X123270674Y-127231535D01*
X123225339Y-127236000D01*
X122138661Y-127236000D01*
X122093326Y-127231535D01*
X122055633Y-127220101D01*
X122020897Y-127201534D01*
X121990452Y-127176548D01*
X121965466Y-127146103D01*
X121946899Y-127111367D01*
X121935465Y-127073674D01*
X121931000Y-127028339D01*
X121931000Y-126191661D01*
X121935465Y-126146326D01*
X121946899Y-126108633D01*
X121965466Y-126073897D01*
X121990452Y-126043452D01*
X122020897Y-126018466D01*
X122055633Y-125999899D01*
X122093326Y-125988465D01*
X122138661Y-125984000D01*
X123225339Y-125984000D01*
X123270674Y-125988465D01*
G37*
G36*
X134008097Y-124684069D02*
G01*
X134111032Y-124694207D01*
X134309146Y-124754305D01*
X134309149Y-124754306D01*
X134405975Y-124806061D01*
X134491729Y-124851897D01*
X134651765Y-124983235D01*
X134783103Y-125143271D01*
X134789718Y-125155647D01*
X134880694Y-125325851D01*
X134880695Y-125325854D01*
X134940793Y-125523968D01*
X134961085Y-125730000D01*
X134940793Y-125936032D01*
X134889548Y-126104962D01*
X134880694Y-126134149D01*
X134829995Y-126229000D01*
X134783103Y-126316729D01*
X134651765Y-126476765D01*
X134491729Y-126608103D01*
X134448891Y-126631000D01*
X134309149Y-126705694D01*
X134309146Y-126705695D01*
X134111032Y-126765793D01*
X134008097Y-126775931D01*
X133956631Y-126781000D01*
X133353369Y-126781000D01*
X133301903Y-126775931D01*
X133198968Y-126765793D01*
X133000854Y-126705695D01*
X133000851Y-126705694D01*
X132861109Y-126631000D01*
X132818271Y-126608103D01*
X132658235Y-126476765D01*
X132526897Y-126316729D01*
X132480005Y-126229000D01*
X132429306Y-126134149D01*
X132420452Y-126104962D01*
X132369207Y-125936032D01*
X132348915Y-125730000D01*
X132369207Y-125523968D01*
X132429305Y-125325854D01*
X132429306Y-125325851D01*
X132520282Y-125155647D01*
X132526897Y-125143271D01*
X132658235Y-124983235D01*
X132818271Y-124851897D01*
X132904025Y-124806061D01*
X133000851Y-124754306D01*
X133000854Y-124754305D01*
X133198968Y-124694207D01*
X133301903Y-124684069D01*
X133353369Y-124679000D01*
X133956631Y-124679000D01*
X134008097Y-124684069D01*
G37*
G36*
X131663674Y-125237465D02*
G01*
X131701367Y-125248899D01*
X131736103Y-125267466D01*
X131766548Y-125292452D01*
X131791534Y-125322897D01*
X131810101Y-125357633D01*
X131821535Y-125395326D01*
X131826000Y-125440661D01*
X131826000Y-126527339D01*
X131821535Y-126572674D01*
X131810101Y-126610367D01*
X131791534Y-126645103D01*
X131766548Y-126675548D01*
X131736103Y-126700534D01*
X131701367Y-126719101D01*
X131663674Y-126730535D01*
X131618339Y-126735000D01*
X130781661Y-126735000D01*
X130736326Y-126730535D01*
X130698633Y-126719101D01*
X130663897Y-126700534D01*
X130633452Y-126675548D01*
X130608466Y-126645103D01*
X130589899Y-126610367D01*
X130578465Y-126572674D01*
X130574000Y-126527339D01*
X130574000Y-125440661D01*
X130578465Y-125395326D01*
X130589899Y-125357633D01*
X130608466Y-125322897D01*
X130633452Y-125292452D01*
X130663897Y-125267466D01*
X130698633Y-125248899D01*
X130736326Y-125237465D01*
X130781661Y-125233000D01*
X131618339Y-125233000D01*
X131663674Y-125237465D01*
G37*
G36*
X129613674Y-125237465D02*
G01*
X129651367Y-125248899D01*
X129686103Y-125267466D01*
X129716548Y-125292452D01*
X129741534Y-125322897D01*
X129760101Y-125357633D01*
X129771535Y-125395326D01*
X129776000Y-125440661D01*
X129776000Y-126527339D01*
X129771535Y-126572674D01*
X129760101Y-126610367D01*
X129741534Y-126645103D01*
X129716548Y-126675548D01*
X129686103Y-126700534D01*
X129651367Y-126719101D01*
X129613674Y-126730535D01*
X129568339Y-126735000D01*
X128731661Y-126735000D01*
X128686326Y-126730535D01*
X128648633Y-126719101D01*
X128613897Y-126700534D01*
X128583452Y-126675548D01*
X128558466Y-126645103D01*
X128539899Y-126610367D01*
X128528465Y-126572674D01*
X128524000Y-126527339D01*
X128524000Y-125440661D01*
X128528465Y-125395326D01*
X128539899Y-125357633D01*
X128558466Y-125322897D01*
X128583452Y-125292452D01*
X128613897Y-125267466D01*
X128648633Y-125248899D01*
X128686326Y-125237465D01*
X128731661Y-125233000D01*
X129568339Y-125233000D01*
X129613674Y-125237465D01*
G37*
G36*
X92468000Y-126631000D02*
G01*
X90666000Y-126631000D01*
X90666000Y-124829000D01*
X92468000Y-124829000D01*
X92468000Y-126631000D01*
G37*
G36*
X138848512Y-124833927D02*
G01*
X138997812Y-124863624D01*
X139161784Y-124931544D01*
X139309354Y-125030147D01*
X139434853Y-125155646D01*
X139533456Y-125303216D01*
X139601376Y-125467188D01*
X139636000Y-125641259D01*
X139636000Y-125818741D01*
X139601376Y-125992812D01*
X139533456Y-126156784D01*
X139434853Y-126304354D01*
X139309354Y-126429853D01*
X139161784Y-126528456D01*
X138997812Y-126596376D01*
X138848512Y-126626073D01*
X138823742Y-126631000D01*
X138646258Y-126631000D01*
X138621488Y-126626073D01*
X138472188Y-126596376D01*
X138308216Y-126528456D01*
X138160646Y-126429853D01*
X138035147Y-126304354D01*
X137936544Y-126156784D01*
X137868624Y-125992812D01*
X137834000Y-125818741D01*
X137834000Y-125641259D01*
X137868624Y-125467188D01*
X137936544Y-125303216D01*
X138035147Y-125155646D01*
X138160646Y-125030147D01*
X138308216Y-124931544D01*
X138472188Y-124863624D01*
X138621488Y-124833927D01*
X138646258Y-124829000D01*
X138823742Y-124829000D01*
X138848512Y-124833927D01*
G37*
G36*
X97754674Y-124983465D02*
G01*
X97792367Y-124994899D01*
X97827103Y-125013466D01*
X97857548Y-125038452D01*
X97882534Y-125068897D01*
X97901101Y-125103633D01*
X97912535Y-125141326D01*
X97917000Y-125186661D01*
X97917000Y-126273339D01*
X97912535Y-126318674D01*
X97901101Y-126356367D01*
X97882534Y-126391103D01*
X97857548Y-126421548D01*
X97827103Y-126446534D01*
X97792367Y-126465101D01*
X97754674Y-126476535D01*
X97709339Y-126481000D01*
X96872661Y-126481000D01*
X96827326Y-126476535D01*
X96789633Y-126465101D01*
X96754897Y-126446534D01*
X96724452Y-126421548D01*
X96699466Y-126391103D01*
X96680899Y-126356367D01*
X96669465Y-126318674D01*
X96665000Y-126273339D01*
X96665000Y-125186661D01*
X96669465Y-125141326D01*
X96680899Y-125103633D01*
X96699466Y-125068897D01*
X96724452Y-125038452D01*
X96754897Y-125013466D01*
X96789633Y-124994899D01*
X96827326Y-124983465D01*
X96872661Y-124979000D01*
X97709339Y-124979000D01*
X97754674Y-124983465D01*
G37*
G36*
X95704674Y-124983465D02*
G01*
X95742367Y-124994899D01*
X95777103Y-125013466D01*
X95807548Y-125038452D01*
X95832534Y-125068897D01*
X95851101Y-125103633D01*
X95862535Y-125141326D01*
X95867000Y-125186661D01*
X95867000Y-126273339D01*
X95862535Y-126318674D01*
X95851101Y-126356367D01*
X95832534Y-126391103D01*
X95807548Y-126421548D01*
X95777103Y-126446534D01*
X95742367Y-126465101D01*
X95704674Y-126476535D01*
X95659339Y-126481000D01*
X94822661Y-126481000D01*
X94777326Y-126476535D01*
X94739633Y-126465101D01*
X94704897Y-126446534D01*
X94674452Y-126421548D01*
X94649466Y-126391103D01*
X94630899Y-126356367D01*
X94619465Y-126318674D01*
X94615000Y-126273339D01*
X94615000Y-125186661D01*
X94619465Y-125141326D01*
X94630899Y-125103633D01*
X94649466Y-125068897D01*
X94674452Y-125038452D01*
X94704897Y-125013466D01*
X94739633Y-124994899D01*
X94777326Y-124983465D01*
X94822661Y-124979000D01*
X95659339Y-124979000D01*
X95704674Y-124983465D01*
G37*
G36*
X100029674Y-124337465D02*
G01*
X100067367Y-124348899D01*
X100102103Y-124367466D01*
X100132548Y-124392452D01*
X100157534Y-124422897D01*
X100176101Y-124457633D01*
X100187535Y-124495326D01*
X100192000Y-124540661D01*
X100192000Y-125377339D01*
X100187535Y-125422674D01*
X100176101Y-125460367D01*
X100157534Y-125495103D01*
X100132548Y-125525548D01*
X100102103Y-125550534D01*
X100067367Y-125569101D01*
X100029674Y-125580535D01*
X99984339Y-125585000D01*
X98897661Y-125585000D01*
X98852326Y-125580535D01*
X98814633Y-125569101D01*
X98779897Y-125550534D01*
X98749452Y-125525548D01*
X98724466Y-125495103D01*
X98705899Y-125460367D01*
X98694465Y-125422674D01*
X98690000Y-125377339D01*
X98690000Y-124540661D01*
X98694465Y-124495326D01*
X98705899Y-124457633D01*
X98724466Y-124422897D01*
X98749452Y-124392452D01*
X98779897Y-124367466D01*
X98814633Y-124348899D01*
X98852326Y-124337465D01*
X98897661Y-124333000D01*
X99984339Y-124333000D01*
X100029674Y-124337465D01*
G37*
G36*
X103401395Y-123545546D02*
G01*
X103574466Y-123617234D01*
X103574467Y-123617235D01*
X103730227Y-123721310D01*
X103862690Y-123853773D01*
X103862691Y-123853775D01*
X103966766Y-124009534D01*
X104038454Y-124182605D01*
X104075000Y-124366333D01*
X104075000Y-124553667D01*
X104038454Y-124737395D01*
X103966766Y-124910466D01*
X103966765Y-124910467D01*
X103862690Y-125066227D01*
X103730227Y-125198690D01*
X103681871Y-125231000D01*
X103574466Y-125302766D01*
X103401395Y-125374454D01*
X103217667Y-125411000D01*
X103030333Y-125411000D01*
X102846605Y-125374454D01*
X102673534Y-125302766D01*
X102566129Y-125231000D01*
X102517773Y-125198690D01*
X102385310Y-125066227D01*
X102281235Y-124910467D01*
X102281234Y-124910466D01*
X102209546Y-124737395D01*
X102173000Y-124553667D01*
X102173000Y-124366333D01*
X102209546Y-124182605D01*
X102281234Y-124009534D01*
X102385309Y-123853775D01*
X102385310Y-123853773D01*
X102517773Y-123721310D01*
X102673533Y-123617235D01*
X102673534Y-123617234D01*
X102846605Y-123545546D01*
X103030333Y-123509000D01*
X103217667Y-123509000D01*
X103401395Y-123545546D01*
G37*
G36*
X107973395Y-123545546D02*
G01*
X108146466Y-123617234D01*
X108146467Y-123617235D01*
X108302227Y-123721310D01*
X108434690Y-123853773D01*
X108434691Y-123853775D01*
X108538766Y-124009534D01*
X108610454Y-124182605D01*
X108647000Y-124366333D01*
X108647000Y-124553667D01*
X108610454Y-124737395D01*
X108538766Y-124910466D01*
X108538765Y-124910467D01*
X108434690Y-125066227D01*
X108302227Y-125198690D01*
X108253871Y-125231000D01*
X108146466Y-125302766D01*
X107973395Y-125374454D01*
X107789667Y-125411000D01*
X107602333Y-125411000D01*
X107418605Y-125374454D01*
X107245534Y-125302766D01*
X107138129Y-125231000D01*
X107089773Y-125198690D01*
X106957310Y-125066227D01*
X106853235Y-124910467D01*
X106853234Y-124910466D01*
X106781546Y-124737395D01*
X106745000Y-124553667D01*
X106745000Y-124366333D01*
X106781546Y-124182605D01*
X106853234Y-124009534D01*
X106957309Y-123853775D01*
X106957310Y-123853773D01*
X107089773Y-123721310D01*
X107245533Y-123617235D01*
X107245534Y-123617234D01*
X107418605Y-123545546D01*
X107602333Y-123509000D01*
X107789667Y-123509000D01*
X107973395Y-123545546D01*
G37*
G36*
X113735000Y-125231000D02*
G01*
X112833000Y-125231000D01*
X112833000Y-123229000D01*
X113735000Y-123229000D01*
X113735000Y-125231000D01*
G37*
G36*
X119831000Y-124977000D02*
G01*
X118929000Y-124977000D01*
X118929000Y-122975000D01*
X119831000Y-122975000D01*
X119831000Y-124977000D01*
G37*
G36*
X111035675Y-122983202D02*
G01*
X111070798Y-122993857D01*
X111103175Y-123011163D01*
X111131550Y-123034450D01*
X111154837Y-123062825D01*
X111172143Y-123095202D01*
X111182798Y-123130325D01*
X111187000Y-123172995D01*
X111187000Y-124287005D01*
X111182798Y-124329675D01*
X111172143Y-124364798D01*
X111154837Y-124397175D01*
X111131550Y-124425550D01*
X111103175Y-124448837D01*
X111070798Y-124466143D01*
X111035675Y-124476798D01*
X110993005Y-124481000D01*
X109478995Y-124481000D01*
X109436325Y-124476798D01*
X109401202Y-124466143D01*
X109368825Y-124448837D01*
X109340450Y-124425550D01*
X109317163Y-124397175D01*
X109299857Y-124364798D01*
X109289202Y-124329675D01*
X109285000Y-124287005D01*
X109285000Y-123172995D01*
X109289202Y-123130325D01*
X109299857Y-123095202D01*
X109317163Y-123062825D01*
X109340450Y-123034450D01*
X109368825Y-123011163D01*
X109401202Y-122993857D01*
X109436325Y-122983202D01*
X109478995Y-122979000D01*
X110993005Y-122979000D01*
X111035675Y-122983202D01*
G37*
G36*
X117131675Y-122983202D02*
G01*
X117166798Y-122993857D01*
X117199175Y-123011163D01*
X117227550Y-123034450D01*
X117250837Y-123062825D01*
X117268143Y-123095202D01*
X117278798Y-123130325D01*
X117283000Y-123172995D01*
X117283000Y-124287005D01*
X117278798Y-124329675D01*
X117268143Y-124364798D01*
X117250837Y-124397175D01*
X117227550Y-124425550D01*
X117199175Y-124448837D01*
X117166798Y-124466143D01*
X117131675Y-124476798D01*
X117089005Y-124481000D01*
X115574995Y-124481000D01*
X115532325Y-124476798D01*
X115497202Y-124466143D01*
X115464825Y-124448837D01*
X115436450Y-124425550D01*
X115413163Y-124397175D01*
X115395857Y-124364798D01*
X115385202Y-124329675D01*
X115381000Y-124287005D01*
X115381000Y-123172995D01*
X115385202Y-123130325D01*
X115395857Y-123095202D01*
X115413163Y-123062825D01*
X115436450Y-123034450D01*
X115464825Y-123011163D01*
X115497202Y-122993857D01*
X115532325Y-122983202D01*
X115574995Y-122979000D01*
X117089005Y-122979000D01*
X117131675Y-122983202D01*
G37*
G36*
X138848512Y-122293927D02*
G01*
X138997812Y-122323624D01*
X139161784Y-122391544D01*
X139309354Y-122490147D01*
X139434853Y-122615646D01*
X139533456Y-122763216D01*
X139601376Y-122927188D01*
X139636000Y-123101259D01*
X139636000Y-123278741D01*
X139601376Y-123452812D01*
X139533456Y-123616784D01*
X139434853Y-123764354D01*
X139309354Y-123889853D01*
X139161784Y-123988456D01*
X138997812Y-124056376D01*
X138848512Y-124086073D01*
X138823742Y-124091000D01*
X138646258Y-124091000D01*
X138621488Y-124086073D01*
X138472188Y-124056376D01*
X138308216Y-123988456D01*
X138160646Y-123889853D01*
X138035147Y-123764354D01*
X137936544Y-123616784D01*
X137868624Y-123452812D01*
X137834000Y-123278741D01*
X137834000Y-123101259D01*
X137868624Y-122927188D01*
X137936544Y-122763216D01*
X138035147Y-122615646D01*
X138160646Y-122490147D01*
X138308216Y-122391544D01*
X138472188Y-122323624D01*
X138621488Y-122293927D01*
X138646258Y-122289000D01*
X138823742Y-122289000D01*
X138848512Y-122293927D01*
G37*
G36*
X136308512Y-122293927D02*
G01*
X136457812Y-122323624D01*
X136621784Y-122391544D01*
X136769354Y-122490147D01*
X136894853Y-122615646D01*
X136993456Y-122763216D01*
X137061376Y-122927188D01*
X137096000Y-123101259D01*
X137096000Y-123278741D01*
X137061376Y-123452812D01*
X136993456Y-123616784D01*
X136894853Y-123764354D01*
X136769354Y-123889853D01*
X136621784Y-123988456D01*
X136457812Y-124056376D01*
X136308512Y-124086073D01*
X136283742Y-124091000D01*
X136106258Y-124091000D01*
X136081488Y-124086073D01*
X135932188Y-124056376D01*
X135768216Y-123988456D01*
X135620646Y-123889853D01*
X135495147Y-123764354D01*
X135396544Y-123616784D01*
X135328624Y-123452812D01*
X135294000Y-123278741D01*
X135294000Y-123101259D01*
X135328624Y-122927188D01*
X135396544Y-122763216D01*
X135495147Y-122615646D01*
X135620646Y-122490147D01*
X135768216Y-122391544D01*
X135932188Y-122323624D01*
X136081488Y-122293927D01*
X136106258Y-122289000D01*
X136283742Y-122289000D01*
X136308512Y-122293927D01*
G37*
G36*
X131228512Y-122293927D02*
G01*
X131377812Y-122323624D01*
X131541784Y-122391544D01*
X131689354Y-122490147D01*
X131814853Y-122615646D01*
X131913456Y-122763216D01*
X131981376Y-122927188D01*
X132016000Y-123101259D01*
X132016000Y-123278741D01*
X131981376Y-123452812D01*
X131913456Y-123616784D01*
X131814853Y-123764354D01*
X131689354Y-123889853D01*
X131541784Y-123988456D01*
X131377812Y-124056376D01*
X131228512Y-124086073D01*
X131203742Y-124091000D01*
X131026258Y-124091000D01*
X131001488Y-124086073D01*
X130852188Y-124056376D01*
X130688216Y-123988456D01*
X130540646Y-123889853D01*
X130415147Y-123764354D01*
X130316544Y-123616784D01*
X130248624Y-123452812D01*
X130214000Y-123278741D01*
X130214000Y-123101259D01*
X130248624Y-122927188D01*
X130316544Y-122763216D01*
X130415147Y-122615646D01*
X130540646Y-122490147D01*
X130688216Y-122391544D01*
X130852188Y-122323624D01*
X131001488Y-122293927D01*
X131026258Y-122289000D01*
X131203742Y-122289000D01*
X131228512Y-122293927D01*
G37*
G36*
X128688512Y-122293927D02*
G01*
X128837812Y-122323624D01*
X129001784Y-122391544D01*
X129149354Y-122490147D01*
X129274853Y-122615646D01*
X129373456Y-122763216D01*
X129441376Y-122927188D01*
X129476000Y-123101259D01*
X129476000Y-123278741D01*
X129441376Y-123452812D01*
X129373456Y-123616784D01*
X129274853Y-123764354D01*
X129149354Y-123889853D01*
X129001784Y-123988456D01*
X128837812Y-124056376D01*
X128688512Y-124086073D01*
X128663742Y-124091000D01*
X128486258Y-124091000D01*
X128461488Y-124086073D01*
X128312188Y-124056376D01*
X128148216Y-123988456D01*
X128000646Y-123889853D01*
X127875147Y-123764354D01*
X127776544Y-123616784D01*
X127708624Y-123452812D01*
X127674000Y-123278741D01*
X127674000Y-123101259D01*
X127708624Y-122927188D01*
X127776544Y-122763216D01*
X127875147Y-122615646D01*
X128000646Y-122490147D01*
X128148216Y-122391544D01*
X128312188Y-122323624D01*
X128461488Y-122293927D01*
X128486258Y-122289000D01*
X128663742Y-122289000D01*
X128688512Y-122293927D01*
G37*
G36*
X125186674Y-122570465D02*
G01*
X125224367Y-122581899D01*
X125259103Y-122600466D01*
X125289548Y-122625452D01*
X125314534Y-122655897D01*
X125333101Y-122690633D01*
X125344535Y-122728326D01*
X125349000Y-122773661D01*
X125349000Y-123860339D01*
X125344535Y-123905674D01*
X125333101Y-123943367D01*
X125314534Y-123978103D01*
X125289548Y-124008548D01*
X125259103Y-124033534D01*
X125224367Y-124052101D01*
X125186674Y-124063535D01*
X125141339Y-124068000D01*
X124304661Y-124068000D01*
X124259326Y-124063535D01*
X124221633Y-124052101D01*
X124186897Y-124033534D01*
X124156452Y-124008548D01*
X124131466Y-123978103D01*
X124112899Y-123943367D01*
X124101465Y-123905674D01*
X124097000Y-123860339D01*
X124097000Y-122773661D01*
X124101465Y-122728326D01*
X124112899Y-122690633D01*
X124131466Y-122655897D01*
X124156452Y-122625452D01*
X124186897Y-122600466D01*
X124221633Y-122581899D01*
X124259326Y-122570465D01*
X124304661Y-122566000D01*
X125141339Y-122566000D01*
X125186674Y-122570465D01*
G37*
G36*
X123136674Y-122570465D02*
G01*
X123174367Y-122581899D01*
X123209103Y-122600466D01*
X123239548Y-122625452D01*
X123264534Y-122655897D01*
X123283101Y-122690633D01*
X123294535Y-122728326D01*
X123299000Y-122773661D01*
X123299000Y-123860339D01*
X123294535Y-123905674D01*
X123283101Y-123943367D01*
X123264534Y-123978103D01*
X123239548Y-124008548D01*
X123209103Y-124033534D01*
X123174367Y-124052101D01*
X123136674Y-124063535D01*
X123091339Y-124068000D01*
X122254661Y-124068000D01*
X122209326Y-124063535D01*
X122171633Y-124052101D01*
X122136897Y-124033534D01*
X122106452Y-124008548D01*
X122081466Y-123978103D01*
X122062899Y-123943367D01*
X122051465Y-123905674D01*
X122047000Y-123860339D01*
X122047000Y-122773661D01*
X122051465Y-122728326D01*
X122062899Y-122690633D01*
X122081466Y-122655897D01*
X122106452Y-122625452D01*
X122136897Y-122600466D01*
X122171633Y-122581899D01*
X122209326Y-122570465D01*
X122254661Y-122566000D01*
X123091339Y-122566000D01*
X123136674Y-122570465D01*
G37*
M02*
